<svg width="16" height="16" viewBox="0 0 16 16" fill="none" xmlns="http://www.w3.org/2000/svg">
<path d="M13.3346 5.46655V2.00065C13.3346 1.63246 13.0362 1.33398 12.668 1.33398H3.33464C2.96645 1.33398 2.66797 1.63246 2.66797 2.00065V14.0007C2.66797 14.3689 2.96645 14.6673 3.33464 14.6673H6.66797" stroke="#FA8C16" stroke-linecap="round" stroke-linejoin="round"/>
<path d="M5.33203 4.66602H9.66536" stroke="#FA8C16" stroke-linecap="round"/>
<path d="M5.33203 7H6.9987" stroke="#FA8C16" stroke-linecap="round"/>
<path d="M8.0013 11.3333C8.0013 13.1743 9.49369 14.6667 11.3346 14.6667C13.1756 14.6667 14.668 13.1743 14.668 11.3333C14.668 9.49238 13.1756 8 11.3346 8C9.49369 8 8.0013 9.49238 8.0013 11.3333Z" fill="#FA8C16" stroke="#FA8C16" stroke-width="2" stroke-linecap="round" stroke-linejoin="round"/>
<path d="M11.332 12V13" stroke="white" stroke-linecap="round"/>
<path d="M11.3346 10.6673C11.7028 10.6673 12.0013 10.3688 12.0013 10.0007C12.0013 9.63246 11.7028 9.33398 11.3346 9.33398C10.9664 9.33398 10.668 9.63246 10.668 10.0007C10.668 10.3688 10.9664 10.6673 11.3346 10.6673Z" fill="white"/>
</svg>
