<svg width="20" height="20" viewBox="0 0 20 20" fill="none" xmlns="http://www.w3.org/2000/svg">
<path d="M8.89922 18.6004H4.29922C2.86922 18.6004 1.69922 17.4304 1.69922 16.0004V4.00039C1.69922 2.57039 2.86922 1.40039 4.29922 1.40039H14.3992C15.8292 1.40039 16.9992 2.57039 16.9992 4.00039V8.20039C16.9992 8.53039 16.7292 8.80039 16.3992 8.80039C16.0692 8.80039 15.7992 8.53039 15.7992 8.20039V4.00039C15.7992 3.23039 15.1692 2.60039 14.3992 2.60039H4.29922C3.52922 2.60039 2.89922 3.23039 2.89922 4.00039V16.0004C2.89922 16.7704 3.52922 17.4004 4.29922 17.4004H8.89922C9.22922 17.4004 9.49922 17.6704 9.49922 18.0004C9.49922 18.3304 9.22922 18.6004 8.89922 18.6004Z" fill="#2D5CF6"/>
<path d="M13 6.00078H5.6C5.27 6.00078 5 5.73078 5 5.40078C5 5.07078 5.27 4.80078 5.6 4.80078H13C13.33 4.80078 13.6 5.07078 13.6 5.40078C13.6 5.73078 13.33 6.00078 13 6.00078ZM8.6 9.00078H5.6C5.27 9.00078 5 8.73078 5 8.40078C5 8.07078 5.27 7.80078 5.6 7.80078H8.6C8.93 7.80078 9.2 8.07078 9.2 8.40078C9.2 8.73078 8.93 9.00078 8.6 9.00078ZM8.6 12.0008H5.6C5.27 12.0008 5 11.7308 5 11.4008C5 11.0708 5.27 10.8008 5.6 10.8008H8.6C8.93 10.8008 9.2 11.0708 9.2 11.4008C9.2 11.7308 8.93 12.0008 8.6 12.0008Z" fill="#2D5CF6"/>
<path d="M17 17.7004H11.4C10.35 17.7004 9.5 16.8504 9.5 15.8004C9.5 14.7504 10.35 13.9004 11.4 13.9004H17C18.05 13.9004 18.9 14.7504 18.9 15.8004C18.9 16.8504 18.05 17.7004 17 17.7004ZM11.4 15.1004C11.01 15.1004 10.7 15.4104 10.7 15.8004C10.7 16.1904 11.01 16.5004 11.4 16.5004H17C17.39 16.5004 17.7 16.1904 17.7 15.8004C17.7 15.4104 17.39 15.1004 17 15.1004H11.4Z" fill="#EB5757"/>
<path d="M15.1998 14.6C15.1598 14.6 15.1198 14.6 15.0698 14.59C14.7498 14.52 14.5398 14.2 14.6098 13.88L15.1998 11.15C15.1698 10.62 14.7298 10.21 14.1998 10.21C13.6698 10.21 13.2298 10.63 13.1998 11.15L13.7898 13.88C13.8598 14.2 13.6498 14.52 13.3298 14.59C13.0098 14.66 12.6898 14.45 12.6198 14.13L12.0098 11.27V11.2C12.0098 9.99 12.9998 9 14.2098 9C15.4198 9 16.4098 9.99 16.4098 11.2V11.26L15.7998 14.12C15.7298 14.41 15.4798 14.6 15.1998 14.6Z" fill="#EB5757"/>
</svg>
