<svg width="20" height="20" viewBox="0 0 20 20" fill="none" xmlns="http://www.w3.org/2000/svg">
<g clip-path="url(#clip0_8335_87681)">
<path d="M9.99988 0.898438C4.97859 0.898438 0.908203 4.96883 0.908203 9.99012C0.908203 15.0114 4.97859 19.0818 9.99988 19.0818C15.0212 19.0818 19.0916 15.0114 19.0916 9.99012C19.0916 4.96883 15.0212 0.898438 9.99988 0.898438ZM9.99988 17.718C5.73193 17.718 2.27195 14.2581 2.27195 9.99012C2.27195 5.72219 5.73193 2.26219 9.99988 2.26219C14.2678 2.26219 17.7278 5.72217 17.7278 9.99012C17.7278 14.2581 14.2678 17.718 9.99988 17.718Z" fill="#EB5757"/>
<path d="M13.5352 6.45368C13.2685 6.18731 12.8369 6.18731 12.5706 6.45368L9.99935 9.02501L7.42812 6.45368C7.16132 6.18731 6.7298 6.18731 6.46343 6.45368C6.19708 6.72003 6.19708 7.15153 6.46343 7.41812L9.0348 9.98958L6.46343 12.561C6.19708 12.8274 6.19708 13.2589 6.46343 13.5255C6.73023 13.7918 7.16175 13.7918 7.42812 13.5255L9.99935 10.9542L12.5706 13.5255C12.8374 13.7918 13.2689 13.7918 13.5352 13.5255C13.8016 13.2591 13.8016 12.8276 13.5352 12.561L10.9639 9.98958L13.5352 7.41812C13.8016 7.15175 13.8016 6.72024 13.5352 6.45368Z" fill="#EB5757"/>
</g>
<defs>
<clipPath id="clip0_8335_87681">
<rect width="20" height="20" fill="white"/>
</clipPath>
</defs>
</svg>
