<svg width="16" height="16" viewBox="0 0 16 16" fill="none" xmlns="http://www.w3.org/2000/svg">
<path d="M8.00005 0.5C12.1422 0.5 15.5 3.85785 15.5 8.00005C15.5 12.1422 12.1422 15.5 8.00005 15.5C3.85785 15.5 0.5 12.1422 0.5 8.00005C0.5 3.85785 3.85785 0.5 8.00005 0.5ZM8.00005 3.00003C7.96242 3.00003 7.92487 3.00189 7.88746 3.00562C7.26576 3.06776 6.8122 3.62217 6.87437 4.24379L7.31281 8.62809C7.34815 8.98116 7.64521 9.25 8.00005 9.25C8.35482 9.25 8.65192 8.98115 8.68719 8.62809L9.12563 4.24379C9.12935 4.20638 9.13122 4.16883 9.13122 4.1312C9.13122 3.5065 8.62482 3.00003 8.00005 3.00003ZM8.00005 13C8.69034 13 9.25002 12.4404 9.25002 11.75C9.25002 11.0597 8.69034 10.5 8.00005 10.5C7.30967 10.5 6.74999 11.0597 6.74999 11.75C6.74998 12.4404 7.30967 13 8.00005 13Z" fill="#F76560"/>
</svg>
