<svg width="20" height="10" viewBox="0 0 20 10" fill="none" xmlns="http://www.w3.org/2000/svg">
<path d="M0 4C0 1.79086 1.79086 0 4 0H20V6C20 8.20914 18.2091 10 16 10H0V4Z" fill="#2D5CF6"/>
<path d="M7.71326 7.09631H4V6.60636L6.13805 3.86115H4.21154V2.95979H7.70192V3.54324L5.65831 6.19495H7.71326V7.09631Z" fill="white"/>
<path d="M8.31387 1.62459C8.31387 1.44008 8.37935 1.29048 8.5103 1.17578C8.64377 1.05859 8.81376 1 9.02026 1C9.2318 1 9.40305 1.05984 9.534 1.17952C9.66495 1.29671 9.73043 1.44507 9.73043 1.62459C9.73043 1.80661 9.66369 1.9587 9.53022 2.08088C9.39675 2.20056 9.22676 2.2604 9.02026 2.2604C8.81628 2.2604 8.64755 2.19931 8.51408 2.07714C8.38061 1.95496 8.31387 1.80411 8.31387 1.62459ZM8.40453 7.09631V2.95979H9.62088V7.09631H8.40453Z" fill="white"/>
<path d="M11.9327 6.59888V9H10.7126V2.95979H11.9327V3.59187H11.9478C12.2676 3.10316 12.7197 2.85881 13.3039 2.85881C13.8353 2.85881 14.2508 3.04332 14.5505 3.41234C14.8502 3.77887 15 4.27879 15 4.91211C15 5.60277 14.8262 6.1563 14.4787 6.5727C14.1312 6.98909 13.6754 7.19729 13.1113 7.19729C12.6 7.19729 12.2122 6.99782 11.9478 6.59888H11.9327ZM11.9138 5.26742C11.9138 5.56163 11.9944 5.80224 12.1556 5.98925C12.3167 6.17625 12.5258 6.26975 12.7826 6.26975C13.0873 6.26975 13.3241 6.15256 13.4928 5.91819C13.664 5.68381 13.7497 5.35219 13.7497 4.92333C13.7497 4.16534 13.4512 3.78635 12.8544 3.78635C12.5774 3.78635 12.3507 3.89107 12.1745 4.10051C12.0007 4.30996 11.9138 4.57924 11.9138 4.90837V5.26742Z" fill="white"/>
</svg>
