<svg xmlns="http://www.w3.org/2000/svg" width="22" height="22" viewBox="0 0 22 22" fill="none">
  <path d="M18.5735 6.5285C18.5649 5.97099 18.3355 5.43965 17.9357 5.05101C17.5359 4.66238 16.9983 4.44819 16.4407 4.45542H13.1327C12.5752 4.4483 12.0377 4.66254 11.638 5.05116C11.2383 5.43979 11.009 5.97107 11.0004 6.5285V15.2862C11.0003 15.3606 10.9811 15.4338 10.9446 15.4986C10.9081 15.5635 10.8554 15.6178 10.7918 15.6564C10.7284 15.6947 10.6561 15.7161 10.582 15.7185C10.508 15.7208 10.4345 15.7041 10.3687 15.6699L8.88035 14.8948C8.5669 14.7312 8.21856 14.6457 7.86496 14.6457H5.56004C5.46843 14.6528 5.37766 14.6237 5.3073 14.5646C5.23694 14.5055 5.19264 14.4211 5.18393 14.3296V6.52681C5.19274 6.43537 5.23708 6.35104 5.30741 6.29194C5.37774 6.23284 5.46845 6.2037 5.56004 6.21077H7.81039C7.89226 6.21079 7.9723 6.23492 8.04054 6.28016L8.51312 6.59366C8.70728 6.72221 8.94453 6.76844 9.17275 6.72219C9.40098 6.67595 9.60151 6.541 9.73031 6.347C9.85902 6.15293 9.90538 5.91568 9.85921 5.68743C9.81303 5.45917 9.6781 5.2586 9.48408 5.12981L9.00939 4.81546C8.65296 4.57921 8.23462 4.45365 7.807 4.45458H5.56004C5.00259 4.44746 4.46506 4.6617 4.06533 5.05032C3.66561 5.43894 3.43631 5.97022 3.42773 6.52766V14.3305C3.43631 14.8879 3.66561 15.4192 4.06533 15.8078C4.46506 16.1964 5.00259 16.4107 5.56004 16.4035H7.86666C7.93606 16.4036 8.00442 16.4205 8.06593 16.4526L9.98585 17.4625C10.299 17.6272 10.6475 17.7131 11.0012 17.713C11.355 17.7132 11.7035 17.6273 12.0166 17.4625L13.9399 16.4513C14.0011 16.4197 14.069 16.4033 14.1379 16.4035H16.4424C17 16.4108 17.5376 16.1966 17.9374 15.808C18.3372 15.4193 18.5666 14.888 18.5752 14.3305L18.5735 6.5285Z" fill="url(#paint0_linear_7367_98829)"/>
  <path d="M7.33339 8.23602C7.21807 8.23597 7.10386 8.25863 6.9973 8.30273C6.89075 8.34682 6.79392 8.41147 6.71235 8.493C6.63079 8.57452 6.56609 8.67132 6.52194 8.77786C6.4778 8.8844 6.45508 8.99859 6.45508 9.11391C6.45508 9.22923 6.4778 9.34342 6.52194 9.44996C6.56609 9.55649 6.63079 9.65329 6.71235 9.73482C6.79392 9.81634 6.89075 9.881 6.9973 9.92509C7.10386 9.96918 7.21807 9.99185 7.33339 9.99179H8.63815C8.87102 9.99179 9.09436 9.89931 9.25906 9.73469C9.42377 9.57007 9.51635 9.34678 9.51646 9.11391C9.51635 8.88104 9.42377 8.65775 9.25906 8.49312C9.09436 8.3285 8.87102 8.23602 8.63815 8.23602H7.33339Z" fill="url(#paint1_linear_7367_98829)"/>
  <defs>
    <linearGradient id="paint0_linear_7367_98829" x1="3.42773" y1="11.0837" x2="18.5752" y2="11.0837" gradientUnits="userSpaceOnUse">
      <stop stop-color="#2F54EB"/>
      <stop offset="1" stop-color="#5196FF"/>
    </linearGradient>
    <linearGradient id="paint1_linear_7367_98829" x1="6.45508" y1="9.11391" x2="9.51646" y2="9.11391" gradientUnits="userSpaceOnUse">
      <stop stop-color="#2F54EB"/>
      <stop offset="1" stop-color="#5196FF"/>
    </linearGradient>
  </defs>
</svg>