<svg xmlns="http://www.w3.org/2000/svg" width="20" height="20" viewBox="0 0 20 20" fill="none">
  <path d="M17.337 7.42577L13.5342 6.47264C13.4639 6.45507 13.4034 6.41014 13.3643 6.3496L11.2842 3.02928C11.1944 2.88671 11.0733 2.76561 10.9307 2.67577C10.4073 2.34764 9.71586 2.50585 9.38773 3.02928L7.30375 6.35155C7.26469 6.4121 7.20414 6.45702 7.13383 6.4746L3.33109 7.42772C3.16703 7.46874 3.01469 7.54686 2.88383 7.65624C2.40922 8.05272 2.34672 8.75975 2.7432 9.23436L3.39945 10.0195L4.23148 10.0937C8.16898 10.4453 11.6416 12.8984 13.294 16.498L13.6631 17.3008L14.0733 17.4648C14.2295 17.5273 14.3995 17.5547 14.5694 17.543C15.1866 17.5 15.6514 16.9668 15.6104 16.3496L15.3409 12.4394C15.335 12.3672 15.3584 12.2969 15.4053 12.2402L17.9209 9.23436C18.0303 9.10546 18.1065 8.95116 18.1495 8.7871C18.2998 8.18358 17.9366 7.57616 17.337 7.42577Z" fill="#2D5CF6"/>
  <path d="M6.59375 17.4629L10.2305 15.998C10.2637 15.9844 10.2988 15.9785 10.3359 15.9785C10.3711 15.9785 10.4062 15.9844 10.4414 15.998L12.541 16.8438C11.0469 13.5879 7.89258 11.2539 4.16406 10.9219L5.26563 12.2383C5.3125 12.293 5.33594 12.3652 5.33008 12.4375L5.05859 16.3457C5.04688 16.5137 5.07422 16.6836 5.13672 16.8418C5.3125 17.2773 5.73242 17.543 6.17578 17.543C6.31641 17.543 6.45703 17.5176 6.59375 17.4629Z" fill="#A8C5FF"/>
</svg>