<svg xmlns="http://www.w3.org/2000/svg" width="18" height="18" viewBox="0 0 18 18" fill="none">
  <path d="M7.3419 0.947388H10.6577C11.0366 0.947388 11.3682 1.27897 11.3682 1.65791C11.3682 2.03686 11.0366 2.36844 10.6577 2.36844H7.3419C6.96295 2.36844 6.63137 2.03686 6.63137 1.65791C6.63137 1.27897 6.96295 0.947388 7.3419 0.947388ZM2.60506 3.31581H15.3945C15.7735 3.31581 16.1051 3.64739 16.1051 4.02634C16.1051 4.40528 15.7735 4.73686 15.3945 4.73686H2.60506C2.22611 4.73686 1.89453 4.40528 1.89453 4.02634C1.89453 3.64739 2.22611 3.31581 2.60506 3.31581Z" fill="#86909C"/>
  <path d="M13.2627 17.0526H4.73638C4.21533 17.0526 3.74165 16.721 3.69428 16.2474L2.79428 6.82105C2.74691 6.20526 3.22059 5.6842 3.88375 5.6842H14.3048C14.968 5.6842 15.3943 6.20526 15.3469 6.82105L14.3048 16.2474C14.2574 16.721 13.7838 17.0526 13.2627 17.0526ZM12.9311 15.6316L13.8785 7.10526H4.2627L5.06796 15.6316H12.9311Z" fill="#86909C"/>
  <path d="M7.34236 16.5789C6.96341 16.5789 6.63184 16.2473 6.63184 15.8684V6.86836C6.63184 6.48942 6.96341 6.15784 7.34236 6.15784C7.72131 6.15784 8.05289 6.48942 8.05289 6.86836V15.8684C8.05289 16.2473 7.72131 16.5789 7.34236 16.5789ZM10.6582 16.5789C10.2792 16.5789 9.94763 16.2473 9.94763 15.8684V6.86836C9.94763 6.48942 10.2792 6.15784 10.6582 6.15784C11.0371 6.15784 11.3687 6.48942 11.3687 6.86836V15.8684C11.3687 16.2473 11.0371 16.5789 10.6582 16.5789Z" fill="#86909C"/>
</svg>