<svg xmlns="http://www.w3.org/2000/svg" width="20" height="20" viewBox="0 0 20 20" fill="none">
  <path d="M16.725 8.36065C14.8731 8.36065 13.8944 10.1313 13.1081 11.5544C12.6037 12.4663 12.0825 13.4088 11.5706 13.46C11.0131 13.3494 10.6313 13.0069 10.1906 12.6132C9.57063 12.0575 8.8725 11.4357 7.6425 11.4813C6.1425 11.5463 4.78625 12.6082 3.61125 14.6394C3.5282 14.7829 3.50555 14.9534 3.54827 15.1136C3.591 15.2738 3.6956 15.4104 3.83906 15.4935C3.98253 15.5765 4.15311 15.5992 4.31328 15.5564C4.47344 15.5137 4.61008 15.4091 4.69312 15.2656C5.64 13.6281 6.65062 12.7757 7.69562 12.73C8.41687 12.7019 8.80813 13.0538 9.35563 13.5438C9.88062 14.0144 10.4756 14.5469 11.4237 14.7038C11.4574 14.7095 11.4915 14.7124 11.5256 14.7125C12.7894 14.7125 13.5069 13.4144 14.2006 12.1594C14.7544 11.1569 15.3237 10.1282 16.0987 9.75565V16.9819H2.5V4.52502H12.0344C12.2001 4.52502 12.3591 4.45918 12.4763 4.34197C12.5935 4.22476 12.6594 4.06578 12.6594 3.90002C12.6594 3.73426 12.5935 3.57529 12.4763 3.45808C12.3591 3.34087 12.2001 3.27502 12.0344 3.27502H1.875C1.70924 3.27502 1.55027 3.34087 1.43306 3.45808C1.31585 3.57529 1.25 3.73426 1.25 3.90002V17.6075C1.25 17.7733 1.31585 17.9323 1.43306 18.0495C1.55027 18.1667 1.70924 18.2325 1.875 18.2325H16.725C16.8908 18.2325 17.0497 18.1667 17.1669 18.0495C17.2842 17.9323 17.35 17.7733 17.35 17.6075V8.98565C17.35 8.81989 17.2842 8.66092 17.1669 8.54371C17.0497 8.4265 16.8908 8.36065 16.725 8.36065Z" fill="#FA8C16"/>
  <path d="M3.53418 8.28752C3.53418 9.4194 4.45543 10.3406 5.5873 10.3406C6.71918 10.3406 7.64043 9.4194 7.64043 8.28752C7.64043 7.15565 6.71918 6.23502 5.5873 6.23502C4.45543 6.23502 3.53418 7.15565 3.53418 8.28752ZM6.39043 8.28752C6.38224 8.49504 6.29404 8.69134 6.14432 8.83527C5.99461 8.9792 5.79499 9.05958 5.5873 9.05958C5.37962 9.05958 5.18 8.9792 5.03028 8.83527C4.88057 8.69134 4.79237 8.49504 4.78418 8.28752C4.79237 8.08001 4.88057 7.88371 5.03028 7.73978C5.18 7.59585 5.37962 7.51547 5.5873 7.51546C5.79499 7.51547 5.99461 7.59585 6.14432 7.73978C6.29404 7.88371 6.38224 8.08001 6.39043 8.28752ZM18.7498 3.41127H17.5511V2.21252C17.5511 2.04676 17.4852 1.88779 17.368 1.77058C17.2508 1.65337 17.0918 1.58752 16.9261 1.58752C16.7603 1.58752 16.6013 1.65337 16.4841 1.77058C16.3669 1.88779 16.3011 2.04676 16.3011 2.21252V3.41065H14.6998C14.534 3.41065 14.3751 3.4765 14.2579 3.59371C14.1407 3.71092 14.0748 3.86989 14.0748 4.03565C14.0748 4.20141 14.1407 4.36038 14.2579 4.47759C14.3751 4.5948 14.534 4.66065 14.6998 4.66065H16.3011V6.2619C16.3011 6.42766 16.3669 6.58663 16.4841 6.70384C16.6013 6.82105 16.7603 6.8869 16.9261 6.8869C17.0918 6.8869 17.2508 6.82105 17.368 6.70384C17.4852 6.58663 17.5511 6.42766 17.5511 6.2619V4.66127H18.7498C18.9156 4.66127 19.0745 4.59543 19.1917 4.47822C19.309 4.36101 19.3748 4.20203 19.3748 4.03627C19.3748 3.87051 19.309 3.71154 19.1917 3.59433C19.0745 3.47712 18.9156 3.41127 18.7498 3.41127Z" fill="#FA8C16"/>
</svg>