<svg xmlns="http://www.w3.org/2000/svg" width="20" height="20" viewBox="0 0 20 20" fill="none">
  <path d="M10.9999 8.08337C11.2499 7.83337 11.6665 7.83337 11.9165 8.08337C12.1665 8.33337 12.1665 8.75003 11.9165 9.00003L8.99989 11.9167C8.74989 12.1667 8.33323 12.1667 8.08323 11.9167C7.83323 11.6667 7.83323 11.25 8.08323 11L10.9999 8.08337ZM9.74989 6.75003C9.49989 7.00003 9.08323 7.00003 8.83323 6.75003C8.58323 6.50003 8.58323 6.08337 8.83323 5.83337L11.0832 3.58337C12.5832 2.08337 14.9999 2.08337 16.4165 3.58337C17.9165 5.08337 17.9165 7.50003 16.4165 8.91669L14.1665 11.1667C13.9165 11.4167 13.4999 11.4167 13.2499 11.1667C12.9999 10.9167 12.9999 10.5 13.2499 10.25L15.4999 8.00003C16.4999 7.00003 16.4999 5.50003 15.4999 4.50003C14.4999 3.50003 12.9999 3.50003 11.9999 4.50003L9.74989 6.75003ZM10.2499 13.25C10.4999 13 10.9165 13 11.1665 13.25C11.4165 13.5 11.4165 13.9167 11.1665 14.1667L8.91655 16.4167C7.41655 17.9167 4.99989 17.9167 3.58323 16.4167C2.16657 14.9167 2.08323 12.5 3.58323 11.0834L5.83323 8.83337C6.08323 8.58337 6.49989 8.58337 6.74989 8.83337C6.99989 9.08337 6.99989 9.50003 6.74989 9.75003L4.49989 12C3.49989 13 3.49989 14.5 4.49989 15.5C5.49989 16.5 6.99989 16.5 7.99989 15.5L10.2499 13.25Z" fill="#14C9C9"/>
</svg>