<svg xmlns="http://www.w3.org/2000/svg" width="20" height="20" viewBox="0 0 20 20" fill="none">
  <path d="M1.25 10C1.25 12.3206 2.17187 14.5462 3.81282 16.1872C5.45376 17.8281 7.67936 18.75 10 18.75C12.3206 18.75 14.5462 17.8281 16.1872 16.1872C17.8281 14.5462 18.75 12.3206 18.75 10C18.75 7.67936 17.8281 5.45376 16.1872 3.81282C14.5462 2.17187 12.3206 1.25 10 1.25C7.67936 1.25 5.45376 2.17187 3.81282 3.81282C2.17187 5.45376 1.25 7.67936 1.25 10Z" fill="#ACB1B9"/>
  <path opacity="0.2" d="M20 12.1484L13.5938 20L10 9.60938L20 12.1484Z" fill="white"/>
  <path d="M8.98052 5.78125C8.94795 5.87066 8.91183 5.95874 8.87224 6.04527L8.85251 6.08746L8.83226 6.1292C8.81174 6.17071 8.7903 6.21176 8.76796 6.25232L8.74525 6.29285C8.72201 6.3335 8.69789 6.37365 8.67292 6.41326L8.64738 6.45318L8.62097 6.49311C8.61203 6.50639 8.603 6.51969 8.59382 6.53299L8.56577 6.57297L8.55144 6.59301L8.52214 6.63307C8.51222 6.64651 8.50214 6.65994 8.49197 6.67338L8.46076 6.71387C8.45025 6.7274 8.43954 6.74098 8.4287 6.75459L8.39556 6.79561C8.38439 6.80928 8.37302 6.82309 8.36148 6.83695L8.32636 6.87861L8.29015 6.92076L8.2529 6.96334L8.21449 7.00641L8.17494 7.05006L8.13427 7.09424L8.11353 7.11658L8.07101 7.16174L8.02726 7.2076L7.98228 7.25418L7.93599 7.30156L7.88843 7.34973L7.83954 7.39875L7.78925 7.44873L7.73757 7.49963L7.68451 7.55149L7.6022 7.63129L7.49679 7.73152L7.4347 7.79096L7.37546 7.84818L7.31798 7.90424L7.26236 7.95916L7.20835 8.01307L7.15601 8.06602L7.13052 8.09219L7.08054 8.14389C6.90033 8.33197 6.75085 8.50488 6.62033 8.68006L6.58521 8.72791C6.51057 8.83099 6.44076 8.93748 6.37603 9.04705L6.35827 9.0774C6.05343 9.60434 5.89564 10.1769 5.8989 10.8342L5.89923 10.8659L5.89933 10.8601C5.87745 11.8451 6.2588 12.7867 6.95501 13.5172L6.98175 13.5449C7.80714 14.3703 8.91947 14.8327 10.0905 14.8327C11.2585 14.8327 12.2577 14.4548 12.9751 13.7284L13.0008 13.702L13.0239 13.6772C13.7222 12.923 14.1103 11.9378 14.0974 10.9344L14.097 10.9144L14.0963 10.9268C14.1057 10.7585 14.1026 10.5761 14.0856 10.3818L14.0801 10.3231C14.075 10.2731 14.0692 10.2231 14.0626 10.1733L14.0541 10.1122C13.9704 9.53881 13.7722 8.87828 13.4263 8.17506L13.4176 8.15807C13.2875 7.91098 13.0479 7.73524 12.7626 7.67254L12.732 7.66613C12.4932 7.61842 12.2419 7.6751 12.0395 7.81561L12.0327 7.82043L12.0287 7.80033C11.7782 6.56244 11.1716 5.74377 10.339 5.3041L10.3228 5.2957L10.3138 5.28803C10.3089 5.284 10.3038 5.28008 10.2987 5.27625L10.2875 5.26809C10.2497 5.24137 10.2086 5.22043 10.1616 5.20852L10.1549 5.20695L10.1465 5.20402C9.67464 5.04385 9.16134 5.29902 8.98052 5.78125Z" fill="white"/>
  <path d="M10.0472 14.5028C9.4427 14.5028 8.87234 14.2633 8.45029 13.8412C8.0967 13.4762 7.89141 12.9972 7.90279 12.4839C7.89141 11.6854 8.34764 11.2406 8.7925 10.8185C9.11188 10.5105 9.43127 10.1912 9.60234 9.72353C9.6708 9.54099 9.86471 9.44976 10.0358 9.51822C10.0472 9.51822 10.0586 9.5296 10.07 9.54099C10.4578 9.7349 10.9027 10.1798 10.9939 11.1607C11.0509 11.1151 11.108 11.0467 11.1879 10.9782C11.2677 10.8984 11.3818 10.8642 11.4844 10.887C11.5985 10.9098 11.6897 10.9782 11.7353 11.0695C12.0775 11.7653 12.1004 12.3014 12.089 12.5067C12.1004 13.0314 11.8951 13.5447 11.53 13.9325C11.165 14.3089 10.6517 14.5028 10.0472 14.5028Z" fill="#ACB1B9"/>
</svg>