<svg xmlns="http://www.w3.org/2000/svg" width="20" height="20" viewBox="0 0 20 20" fill="none">
  <g clip-path="url(#clip0_7419_57878)">
    <path opacity="0.01" d="M0 0H20V20H0V0Z" fill="#ACB1B9"/>
    <path d="M2.5 1.49998C2.5 1.41243 2.51724 1.32574 2.55075 1.24486C2.58425 1.16397 2.63336 1.09048 2.69526 1.02858C2.75717 0.966669 2.83066 0.917563 2.91154 0.88406C2.99243 0.850557 3.07912 0.833313 3.16667 0.833313H16.5C16.5875 0.833313 16.6742 0.850557 16.7551 0.88406C16.836 0.917563 16.9095 0.966669 16.9714 1.02858C17.0333 1.09048 17.0824 1.16397 17.1159 1.24486C17.1494 1.32574 17.1667 1.41243 17.1667 1.49998V4.83331C17.1667 4.92086 17.1494 5.00755 17.1159 5.08844C17.0824 5.16932 17.0333 5.24281 16.9714 5.30472C16.9095 5.36662 16.836 5.41573 16.7551 5.44923C16.6742 5.48274 16.5875 5.49998 16.5 5.49998H3.16667C3.07912 5.49998 2.99243 5.48274 2.91154 5.44923C2.83066 5.41573 2.75717 5.36662 2.69526 5.30472C2.63336 5.24281 2.58425 5.16932 2.55075 5.08844C2.51724 5.00755 2.5 4.92086 2.5 4.83331V1.49998Z" fill="#E5E6EB"/>
    <path d="M2 3.33335C2 3.24581 2.01724 3.15911 2.05075 3.07823C2.08425 2.99735 2.13336 2.92385 2.19526 2.86195C2.25717 2.80004 2.33066 2.75094 2.41154 2.71743C2.49243 2.68393 2.57912 2.66669 2.66667 2.66669H17.3333C17.4209 2.66669 17.5076 2.68393 17.5885 2.71743C17.6693 2.75094 17.7428 2.80004 17.8047 2.86195C17.8666 2.92385 17.9157 2.99735 17.9493 3.07823C17.9828 3.15911 18 3.24581 18 3.33335V14.9214C17.9999 15.0451 17.9654 15.1664 17.9003 15.2717C17.8352 15.377 17.7421 15.462 17.6313 15.5174L10.596 19.0354C10.4109 19.1278 10.2069 19.176 10 19.176C9.79311 19.176 9.58907 19.1278 9.404 19.0354L2.36867 15.5174C2.25795 15.462 2.16481 15.377 2.0997 15.2717C2.03459 15.1664 2.00007 15.0451 2 14.9214V3.33335Z" fill="#ACB1B9"/>
    <path d="M9.69952 5.96402C9.72667 5.9073 9.76931 5.85942 9.82251 5.8259C9.87571 5.79238 9.93731 5.7746 10.0002 5.7746C10.0631 5.7746 10.1247 5.79238 10.1779 5.8259C10.2311 5.85942 10.2737 5.9073 10.3009 5.96402L11.2669 7.98669C11.2908 8.03677 11.3269 8.08007 11.3718 8.11267C11.4168 8.14527 11.4691 8.16613 11.5242 8.17335L13.7469 8.46669C13.8092 8.47494 13.868 8.50066 13.9163 8.5409C13.9647 8.58114 14.0007 8.63424 14.0201 8.69406C14.0396 8.75389 14.0417 8.818 14.0263 8.87898C14.0108 8.93996 13.9784 8.99533 13.9329 9.03869L12.3069 10.582C12.2665 10.6202 12.2363 10.6679 12.2191 10.7208C12.2018 10.7737 12.1981 10.83 12.2082 10.8847L12.6169 13.0887C12.6282 13.1505 12.6219 13.2144 12.5985 13.2728C12.5752 13.3311 12.5358 13.3817 12.4849 13.4187C12.434 13.4556 12.3737 13.4774 12.3109 13.4816C12.2481 13.4857 12.1855 13.472 12.1302 13.442L10.1602 12.3727C10.1113 12.3461 10.0565 12.3321 10.0009 12.3321C9.94519 12.3321 9.89042 12.3461 9.84153 12.3727L7.87152 13.442C7.81623 13.472 7.75358 13.4857 7.69082 13.4816C7.62807 13.4774 7.56775 13.4556 7.51686 13.4187C7.46596 13.3817 7.42656 13.3311 7.4032 13.2728C7.37985 13.2144 7.37349 13.1505 7.38486 13.0887L7.79286 10.8847C7.80304 10.8301 7.79941 10.7738 7.7823 10.7209C7.76518 10.668 7.73512 10.6203 7.69486 10.582L6.06952 9.03869C6.02395 8.99538 5.99156 8.94006 5.97608 8.87913C5.9606 8.81819 5.96267 8.75413 5.98205 8.69432C6.00143 8.63451 6.03732 8.5814 6.0856 8.54112C6.13387 8.50085 6.19255 8.47504 6.25486 8.46669L8.47752 8.17335C8.53257 8.16613 8.58494 8.14527 8.62988 8.11267C8.67482 8.08007 8.7109 8.03677 8.73486 7.98669L9.70019 5.96402H9.69952Z" fill="white"/>
  </g>
  <defs>
    <clipPath id="clip0_7419_57878">
      <rect width="20" height="20" fill="white"/>
    </clipPath>
  </defs>
</svg>