<svg xmlns="http://www.w3.org/2000/svg" width="20" height="20" viewBox="0 0 20 20" fill="none">
  <g clip-path="url(#clip0_7419_19673)">
    <path opacity="0.01" d="M0 0H20V20H0V0Z" fill="#2D5CF6"/>
    <path d="M2.66602 1.33335C2.66602 1.24581 2.68326 1.15912 2.71676 1.07823C2.75027 0.997348 2.79937 0.923855 2.86128 0.861949C2.92318 0.800043 2.99668 0.750937 3.07756 0.717434C3.15844 0.683931 3.24513 0.666687 3.33268 0.666687H16.666C16.7536 0.666687 16.8403 0.683931 16.9211 0.717434C17.002 0.750937 17.0755 0.800043 17.1374 0.861949C17.1993 0.923855 17.2484 0.997348 17.2819 1.07823C17.3154 1.15912 17.3327 1.24581 17.3327 1.33335V4.66669C17.3327 4.75423 17.3154 4.84093 17.2819 4.92181C17.2484 5.00269 17.1993 5.07619 17.1374 5.13809C17.0755 5.2 17.002 5.2491 16.9211 5.28261C16.8403 5.31611 16.7536 5.33335 16.666 5.33335H3.33268C3.24513 5.33335 3.15844 5.31611 3.07756 5.28261C2.99668 5.2491 2.92318 5.2 2.86128 5.13809C2.79937 5.07619 2.75027 5.00269 2.71676 4.92181C2.68326 4.84093 2.66602 4.75423 2.66602 4.66669V1.33335Z" fill="#A8C5FF"/>
    <path d="M2 3.33335C2 3.24581 2.01724 3.15911 2.05075 3.07823C2.08425 2.99735 2.13336 2.92385 2.19526 2.86195C2.25717 2.80004 2.33066 2.75094 2.41154 2.71743C2.49243 2.68393 2.57912 2.66669 2.66667 2.66669H17.3333C17.4209 2.66669 17.5076 2.68393 17.5885 2.71743C17.6693 2.75094 17.7428 2.80004 17.8047 2.86195C17.8666 2.92385 17.9157 2.99735 17.9493 3.07823C17.9828 3.15911 18 3.24581 18 3.33335V14.9214C17.9999 15.0451 17.9654 15.1664 17.9003 15.2717C17.8352 15.377 17.7421 15.462 17.6313 15.5174L10.596 19.0354C10.4109 19.1278 10.2069 19.176 10 19.176C9.79311 19.176 9.58907 19.1278 9.404 19.0354L2.36867 15.5174C2.25795 15.462 2.16481 15.377 2.0997 15.2717C2.03459 15.1664 2.00007 15.0451 2 14.9214V3.33335Z" fill="#2D5CF6"/>
    <path d="M9.69855 5.96402C9.7257 5.9073 9.76833 5.85942 9.82153 5.8259C9.87474 5.79238 9.93633 5.7746 9.99921 5.7746C10.0621 5.7746 10.1237 5.79238 10.1769 5.8259C10.2301 5.85942 10.2727 5.9073 10.2999 5.96402L11.2659 7.98669C11.2898 8.03677 11.3259 8.08007 11.3709 8.11267C11.4158 8.14527 11.4682 8.16613 11.5232 8.17335L13.7459 8.46669C13.8082 8.47494 13.867 8.50066 13.9154 8.5409C13.9637 8.58114 13.9997 8.63424 14.0192 8.69406C14.0386 8.75389 14.0407 8.818 14.0253 8.87898C14.0099 8.93996 13.9775 8.99533 13.9319 9.03869L12.3059 10.582C12.2655 10.6202 12.2353 10.6679 12.2181 10.7208C12.2008 10.7737 12.1971 10.83 12.2072 10.8847L12.6159 13.0887C12.6273 13.1505 12.6209 13.2144 12.5975 13.2728C12.5742 13.3311 12.5348 13.3817 12.4839 13.4187C12.433 13.4556 12.3727 13.4774 12.3099 13.4816C12.2472 13.4857 12.1845 13.472 12.1292 13.442L10.1592 12.3727C10.1103 12.3461 10.0555 12.3321 9.99988 12.3321C9.94422 12.3321 9.88944 12.3461 9.84055 12.3727L7.87055 13.442C7.81525 13.472 7.75261 13.4857 7.68985 13.4816C7.62709 13.4774 7.56678 13.4556 7.51588 13.4187C7.46499 13.3817 7.42559 13.3311 7.40223 13.2728C7.37887 13.2144 7.37251 13.1505 7.38388 13.0887L7.79188 10.8847C7.80207 10.8301 7.79843 10.7738 7.78132 10.7209C7.7642 10.668 7.73415 10.6203 7.69388 10.582L6.06855 9.03869C6.02298 8.99538 5.99058 8.94006 5.9751 8.87913C5.95963 8.81819 5.9617 8.75413 5.98107 8.69432C6.00045 8.63451 6.03635 8.5814 6.08462 8.54112C6.13289 8.50085 6.19157 8.47504 6.25388 8.46669L8.47655 8.17335C8.53159 8.16613 8.58396 8.14527 8.6289 8.11267C8.67384 8.08007 8.70993 8.03677 8.73388 7.98669L9.69922 5.96402H9.69855Z" fill="white"/>
  </g>
  <defs>
    <clipPath id="clip0_7419_19673">
      <rect width="20" height="20" fill="white"/>
    </clipPath>
  </defs>
</svg>