<svg xmlns="http://www.w3.org/2000/svg" width="32" height="32" viewBox="0 0 32 32" fill="none">
  <path d="M1.82227 16.0351C1.82227 17.8852 2.18666 19.7172 2.89465 21.4264C3.60264 23.1356 4.64035 24.6887 5.94854 25.9969C7.25674 27.3051 8.80979 28.3428 10.519 29.0508C12.2283 29.7587 14.0602 30.1231 15.9103 30.1231C17.7603 30.1231 19.5923 29.7587 21.3015 29.0508C23.0107 28.3428 24.5638 27.3051 25.872 25.9969C27.1802 24.6887 28.2179 23.1356 28.9259 21.4264C29.6339 19.7172 29.9983 17.8852 29.9983 16.0351C29.9983 14.1851 29.6339 12.3531 28.9259 10.6439C28.2179 8.93466 27.1802 7.38162 25.872 6.07342C24.5638 4.76523 23.0107 3.72752 21.3015 3.01953C19.5923 2.31154 17.7603 1.94714 15.9103 1.94714C14.0602 1.94714 12.2283 2.31154 10.519 3.01953C8.80979 3.72752 7.25674 4.76523 5.94854 6.07342C4.64035 7.38162 3.60264 8.93466 2.89465 10.6439C2.18666 12.3531 1.82227 14.1851 1.82227 16.0351Z" fill="#FFF1DC"/>
  <path d="M15.5826 6.16315C10.8754 6.40635 7.04498 10.2176 6.78258 14.9248C6.63538 17.5536 7.58098 19.96 9.20498 21.736C9.33938 21.8832 9.41778 22.0704 9.41778 22.2688V24.8208C9.41778 25.376 9.98098 25.752 10.493 25.5392L13.0882 24.4624C13.2514 24.3952 13.4306 24.3872 13.6018 24.4336C14.4418 24.6656 15.3298 24.7824 16.2466 24.7648C21.1122 24.6768 25.1442 20.7712 25.3746 15.9088C25.6338 10.3984 21.0994 5.87835 15.5826 6.16315ZM20.1666 14.8256H19.2354L18.845 16.2544H19.2498C19.869 16.2544 20.3714 16.7568 20.3714 17.376C20.3714 17.9952 19.869 18.4976 19.2498 18.4976H18.2306L18.0258 19.2464C17.8898 19.7456 17.437 20.072 16.9442 20.072C16.7716 20.0721 16.6012 20.0323 16.4465 19.9559C16.2917 19.8794 16.1567 19.7683 16.0519 19.6311C15.947 19.494 15.8753 19.3345 15.8422 19.1651C15.8091 18.9957 15.8155 18.8209 15.861 18.6544L15.9042 18.4992H14.6082L14.4034 19.248C14.2674 19.7472 13.8146 20.0736 13.3218 20.0736C13.1492 20.0737 12.9788 20.0339 12.8241 19.9575C12.6693 19.881 12.5343 19.7699 12.4295 19.6327C12.3246 19.4956 12.2529 19.3361 12.2198 19.1667C12.1867 18.9973 12.1931 18.8225 12.2386 18.656L12.2818 18.5008H11.9858C11.3666 18.5008 10.8642 17.9984 10.8642 17.3792C10.8642 16.76 11.3666 16.2576 11.9858 16.2576H12.8962L13.2866 14.8288H12.901C12.2818 14.8288 11.7794 14.3264 11.7794 13.7072C11.7794 13.088 12.2818 12.5856 12.901 12.5856H13.901L14.1266 11.7584C14.2898 11.16 14.9074 10.808 15.5042 10.9728C15.7909 11.0514 16.0347 11.2407 16.182 11.499C16.3293 11.7573 16.3681 12.0635 16.2898 12.3504L16.2258 12.5856H17.5234L17.749 11.7584C17.9122 11.16 18.5298 10.808 19.1266 10.9728C19.4133 11.0514 19.6571 11.2407 19.8044 11.499C19.9517 11.7573 19.9905 12.0635 19.9122 12.3504L19.8482 12.5856H20.165C20.7842 12.5856 21.2866 13.088 21.2866 13.7072C21.2882 14.3232 20.7858 14.8256 20.1666 14.8256Z" fill="#FF8E12"/>
  <path d="M15.2227 16.2544H16.5187L16.9107 14.8256H15.6131L15.2227 16.2544Z" fill="#FCB138"/>
  <path d="M15.5826 6.16315C10.8754 6.40635 7.04498 10.2176 6.78258 14.9248C6.63538 17.5536 7.58098 19.96 9.20498 21.736C9.33938 21.8832 9.41778 22.0704 9.41778 22.2688V22.9136C10.181 23.0704 10.9714 23.1536 11.7794 23.1536C18.229 23.1536 23.4562 17.9248 23.4562 11.4768C23.4562 10.8352 23.4018 10.2064 23.3026 9.59355C21.501 7.37435 18.6994 6.00315 15.5826 6.16315ZM20.1666 14.8256H19.2354L18.845 16.2544H19.2498C19.869 16.2544 20.3714 16.7568 20.3714 17.376C20.3714 17.9952 19.869 18.4976 19.2498 18.4976H18.2306L18.0258 19.2464C17.8898 19.7456 17.437 20.072 16.9442 20.072C16.7716 20.0721 16.6012 20.0323 16.4465 19.9559C16.2917 19.8794 16.1567 19.7683 16.0519 19.6311C15.947 19.494 15.8753 19.3345 15.8422 19.1651C15.8091 18.9956 15.8155 18.8209 15.861 18.6544L15.9042 18.4992H14.6082L14.4034 19.248C14.2674 19.7472 13.8146 20.0736 13.3218 20.0736C13.1492 20.0737 12.9788 20.0339 12.8241 19.9575C12.6693 19.881 12.5343 19.7699 12.4295 19.6327C12.3246 19.4956 12.2529 19.3361 12.2198 19.1667C12.1867 18.9972 12.1931 18.8225 12.2386 18.656L12.2818 18.5008H11.9858C11.3666 18.5008 10.8642 17.9984 10.8642 17.3792C10.8642 16.76 11.3666 16.2576 11.9858 16.2576H12.8962L13.2866 14.8288H12.901C12.2818 14.8288 11.7794 14.3264 11.7794 13.7072C11.7794 13.088 12.2818 12.5856 12.901 12.5856H13.901L14.1266 11.7584C14.2898 11.1616 14.9074 10.808 15.5042 10.9728C15.7909 11.0514 16.0347 11.2407 16.182 11.499C16.3293 11.7573 16.3681 12.0635 16.2898 12.3504L16.2258 12.5856H17.5234L17.749 11.7584C17.9122 11.1616 18.5298 10.808 19.1266 10.9728C19.4133 11.0514 19.6571 11.2407 19.8044 11.499C19.9517 11.7573 19.9905 12.0635 19.9122 12.3504L19.8482 12.5856H20.165C20.7842 12.5856 21.2866 13.088 21.2866 13.7072C21.2882 14.3232 20.7858 14.8256 20.1666 14.8256Z" fill="#FCA315"/>
  <path d="M15.5825 6.16319C10.8753 6.40639 7.04489 10.2176 6.78249 14.9248C6.70249 16.3552 6.94729 17.7184 7.44809 18.952C8.98043 19.1024 10.5274 18.9485 12.0001 18.4992H11.9841C11.3649 18.4992 10.8625 17.9968 10.8625 17.3776C10.8625 16.7584 11.3649 16.256 11.9841 16.256H12.8945L13.2849 14.8272H12.8993C12.2801 14.8272 11.7777 14.3248 11.7777 13.7056C11.7777 13.0864 12.2801 12.584 12.8993 12.584H13.8993L14.1249 11.7568C14.2881 11.16 14.9057 10.8064 15.5025 10.9712C15.7892 11.0499 16.033 11.2391 16.1803 11.4974C16.3276 11.7557 16.3664 12.0619 16.2881 12.3488L16.2241 12.584H17.5217L17.7473 11.7568C17.9105 11.16 18.5281 10.8064 19.1249 10.9712C19.298 11.0186 19.4571 11.107 19.5889 11.2288C20.0209 10.0096 20.2577 8.69759 20.2577 7.33119C20.2577 7.26879 20.2545 7.20639 20.2529 7.14399C18.8625 6.43999 17.2689 6.07679 15.5825 6.16319Z" fill="#FCB138"/>
  <path d="M15.582 6.16322C10.91 6.40482 7.10524 10.1616 6.79004 14.8176C8.68024 14.6342 10.4966 13.9898 12.0796 12.9408C12.1905 12.8215 12.3259 12.7276 12.4764 12.6656C14.6316 11.1088 16.2348 8.83522 16.934 6.19202C16.4924 6.15202 16.0412 6.13922 15.582 6.16322Z" fill="#FFC65E"/>
</svg>