<svg xmlns="http://www.w3.org/2000/svg" width="20" height="20" viewBox="0 0 20 20" fill="none">
  <g clip-path="url(#clip0_6753_105229)">
    <path d="M0 10C0 12.6522 1.05357 15.1957 2.92893 17.0711C4.8043 18.9464 7.34784 20 10 20C12.6522 20 15.1957 18.9464 17.0711 17.0711C18.9464 15.1957 20 12.6522 20 10C20 7.34784 18.9464 4.8043 17.0711 2.92893C15.1957 1.05357 12.6522 0 10 0C7.34784 0 4.8043 1.05357 2.92893 2.92893C1.05357 4.8043 0 7.34784 0 10Z" fill="#F2F3F5"/>
    <path opacity="0.7" d="M4.39293 9.46116L6.62611 11.1537L7.64021 8.0332L4.84021 8.09275C4.68205 8.09583 4.52877 8.14804 4.40161 8.24213C4.27445 8.33623 4.17972 8.46756 4.13054 8.61791C4.08137 8.76826 4.08018 8.93018 4.12716 9.08124C4.17413 9.23229 4.26694 9.36498 4.39271 9.46093" fill="#ACB1B9"/>
    <path opacity="0.7" d="M14.2013 14.4991L13.3886 11.8073L10.7266 13.7423L13.0345 15.3491C13.1648 15.4402 13.3203 15.4884 13.4793 15.4868C13.6383 15.4853 13.7928 15.4342 13.9213 15.3406C14.0498 15.2469 14.1459 15.1155 14.1961 14.9647C14.2463 14.8138 14.2481 14.651 14.2013 14.4991Z" fill="#ACB1B9"/>
    <path d="M15.0703 7.91862L11.934 7.85521L10.9046 4.89135C10.8466 4.72392 10.7379 4.57873 10.5936 4.47597C10.4492 4.37321 10.2765 4.31799 10.0993 4.31799C9.92211 4.31799 9.74933 4.37321 9.605 4.47597C9.46066 4.57873 9.35193 4.72392 9.29395 4.89135L8.26486 7.85521L7.1319 11.345L6.22281 14.3463C6.1717 14.516 6.17465 14.6974 6.23125 14.8653C6.28786 15.0332 6.39532 15.1794 6.53873 15.2834C6.68213 15.3875 6.85438 15.4444 7.03157 15.4462C7.20876 15.448 7.38211 15.3946 7.52759 15.2934L10.104 13.5L13.0717 11.3409L15.5696 9.44703C15.711 9.34027 15.8155 9.19202 15.8685 9.02299C15.9215 8.85396 15.9204 8.67259 15.8654 8.50421C15.8103 8.33584 15.704 8.18887 15.5613 8.08384C15.4187 7.97882 15.2468 7.92097 15.0696 7.91839" fill="#ACB1B9"/>
  </g>
  <defs>
    <clipPath id="clip0_6753_105229">
      <rect width="20" height="20" fill="white"/>
    </clipPath>
  </defs>
</svg>