<svg xmlns="http://www.w3.org/2000/svg" width="22" height="22" viewBox="0 0 22 22" fill="none">
  <g clip-path="url(#clip0_7682_4438)">
    <path opacity="0.25" d="M0 11C0 13.9174 1.15893 16.7153 3.22183 18.7782C5.28473 20.8411 8.08262 22 11 22C13.9174 22 16.7153 20.8411 18.7782 18.7782C20.8411 16.7153 22 13.9174 22 11C22 8.08262 20.8411 5.28473 18.7782 3.22183C16.7153 1.15893 13.9174 0 11 0C8.08262 0 5.28473 1.15893 3.22183 3.22183C1.15893 5.28473 0 8.08262 0 11Z" fill="#FFB26E"/>
    <path opacity="0.7" d="M4.83213 10.4073L7.28863 12.269L8.40413 8.83655L5.32413 8.90205C5.15015 8.90544 4.98154 8.96286 4.84167 9.06637C4.7018 9.16988 4.59759 9.31434 4.5435 9.47972C4.48941 9.64511 4.4881 9.82323 4.53978 9.98938C4.59145 10.1555 4.69353 10.3015 4.83188 10.407" fill="#FA8C16"/>
    <path opacity="0.7" d="M15.6211 15.949L14.7271 12.988L11.7988 15.1165L14.3376 16.884C14.4809 16.9843 14.6519 17.0373 14.8268 17.0356C15.0017 17.0339 15.1717 16.9777 15.3131 16.8747C15.4544 16.7717 15.5601 16.6271 15.6153 16.4612C15.6705 16.2952 15.6726 16.1162 15.6211 15.949Z" fill="#FA8C16"/>
    <path d="M16.5769 8.71045L13.1269 8.6407L11.9946 5.38045C11.9308 5.19628 11.8112 5.03657 11.6525 4.92353C11.4937 4.8105 11.3036 4.74976 11.1087 4.74976C10.9138 4.74976 10.7238 4.8105 10.565 4.92353C10.4062 5.03657 10.2866 5.19628 10.2229 5.38045L9.09086 8.6407L7.84461 12.4794L6.84461 15.7809C6.78838 15.9676 6.79162 16.1671 6.85389 16.3518C6.91616 16.5365 7.03436 16.6973 7.19211 16.8117C7.34986 16.9262 7.53933 16.9888 7.73424 16.9908C7.92915 16.9927 8.11984 16.934 8.27986 16.8227L11.1139 14.8499L14.3784 12.4749L17.1261 10.3917C17.2816 10.2743 17.3966 10.1112 17.4549 9.92525C17.5132 9.73932 17.512 9.53981 17.4514 9.3546C17.3908 9.16938 17.2739 9.00772 17.117 8.89219C16.96 8.77666 16.771 8.71303 16.5761 8.7102" fill="#FA8C16"/>
  </g>
  <defs>
    <clipPath id="clip0_7682_4438">
      <rect width="22" height="22" fill="white"/>
    </clipPath>
  </defs>
</svg>