<svg xmlns="http://www.w3.org/2000/svg" width="18" height="18" viewBox="0 0 18 18" fill="none">
  <path d="M1.57124 8.31499C1.53313 7.87676 1.87856 7.5 2.31841 7.5H3.75037C4.16459 7.5 4.50037 7.83578 4.50037 8.25V15.375C4.50037 15.7892 4.16459 16.125 3.75037 16.125H2.93798C2.54895 16.125 2.2245 15.8276 2.1908 15.44L1.57124 8.31499Z" stroke="#86909C" stroke-width="1.3" stroke-linecap="round" stroke-linejoin="round"/>
  <path d="M6.75 8.01544C6.75 7.70205 6.94477 7.42155 7.22824 7.28794C7.84642 6.99653 8.89984 6.41018 9.375 5.61769C9.98741 4.59634 10.1029 2.75098 10.1217 2.32829C10.1243 2.26912 10.1226 2.20988 10.1308 2.15121C10.2323 1.41917 11.6454 2.27435 12.1875 3.17855C12.4817 3.66927 12.5195 4.314 12.4885 4.81736C12.4554 5.35594 12.2975 5.87621 12.1426 6.39311L11.8125 7.49419H15.8838C16.3812 7.49419 16.7408 7.96942 16.6056 8.44804L14.5917 15.5788C14.5005 15.9019 14.2057 16.125 13.87 16.125H7.5C7.08578 16.125 6.75 15.7892 6.75 15.375V8.01544Z" stroke="#86909C" stroke-width="1.3" stroke-linecap="round" stroke-linejoin="round"/>
</svg>