<svg xmlns="http://www.w3.org/2000/svg" width="24" height="24" viewBox="0 0 24 24" fill="none">
  <path d="M19.2394 4H13.2308C12.8911 4 12.6154 4.27569 12.6154 4.61538C12.6154 4.95508 12.8911 5.23077 13.2308 5.23077H17.8991L12.7569 10.3742C12.5255 10.6055 12.5255 10.9772 12.7569 11.2086C12.9871 11.4388 13.36 11.4388 13.5902 11.2086L18.7705 6.02831V10.7705C18.7705 11.1102 19.0462 11.3858 19.3858 11.3858C19.7255 11.3858 20.0012 11.1102 20.0012 10.7705V4.61662C20 4.20554 19.6222 4 19.2394 4ZM4.76062 20H10.7705C11.1102 20 11.3858 19.7243 11.3858 19.3846C11.3858 19.0449 11.1102 18.7692 10.7705 18.7692H6.10092L11.2443 13.6258C11.4757 13.3957 11.4757 13.0228 11.2443 12.7926C11.0142 12.5625 10.6412 12.5625 10.4111 12.7926L5.23077 17.9729V13.2308C5.23077 12.8911 4.95508 12.6154 4.61538 12.6154C4.27569 12.6154 4 12.8911 4 13.2308V19.3846C4 19.8142 4.30154 20 4.76062 20Z" fill="#505968"/>
</svg>