<svg width="33" height="37" viewBox="0 0 33 37" fill="none" xmlns="http://www.w3.org/2000/svg">
<g id="&#230;&#182;&#136;&#228;&#191;&#157;&#229;&#174;&#161;&#230;&#159;&#165;/&#229;&#155;&#190;&#230;&#160;&#135;">
<g id="Vector" filter="url(#filter0_d_2597_56065)">
<path d="M23.0618 4.39053C21.6909 3.79762 20.2309 3.5 18.7686 3.5C17.3062 3.5 15.8416 3.79762 14.473 4.39287L9.5821 6.50904V12.5412C9.57741 13.9145 9.8141 15.276 10.2758 16.5696C10.7234 17.8351 11.3655 19.0209 12.1763 20.0849C12.9966 21.1699 13.9879 22.112 15.1057 22.8806C16.2189 23.6423 17.4609 24.1907 18.7662 24.5C20.0716 24.1883 21.3066 23.6423 22.4174 22.8853C23.5376 22.1214 24.5265 21.1746 25.3467 20.0896C26.1646 19.0233 26.8114 17.8351 27.2614 16.5649C27.723 15.2737 27.9574 13.9121 27.955 12.5388V6.50904L23.0618 4.39053ZM23.8703 11.4679L21.6183 13.6614C21.5784 13.6989 21.562 13.7528 21.5714 13.8067L22.1034 16.9048C22.1502 17.1743 21.8667 17.3758 21.6276 17.2516L18.8459 15.7893C18.799 15.7635 18.7405 15.7635 18.6936 15.7893L15.9095 17.2539C15.6705 17.3805 15.3869 17.1766 15.4338 16.9071L15.9658 13.809C15.9728 13.7551 15.9564 13.7012 15.9189 13.6637L13.6668 11.4679C13.4723 11.278 13.5777 10.9476 13.8496 10.9078L16.9594 10.4578C17.0133 10.4484 17.0602 10.4156 17.0813 10.3664L18.471 7.5472C18.5928 7.30348 18.9396 7.30348 19.0592 7.5472L20.4512 10.3664C20.4746 10.4156 20.5215 10.4484 20.5731 10.4578L23.6829 10.9078C23.9571 10.9476 24.0649 11.278 23.8703 11.4679Z" fill="url(#paint0_linear_2597_56065)"/>
</g>
</g>
<defs>
<filter id="filter0_d_2597_56065" x="0.582031" y="3.5" width="30.3711" height="33" filterUnits="userSpaceOnUse" color-interpolation-filters="sRGB">
<feFlood flood-opacity="0" result="BackgroundImageFix"/>
<feColorMatrix in="SourceAlpha" type="matrix" values="0 0 0 0 0 0 0 0 0 0 0 0 0 0 0 0 0 0 127 0" result="hardAlpha"/>
<feOffset dx="-3" dy="6"/>
<feGaussianBlur stdDeviation="3"/>
<feComposite in2="hardAlpha" operator="out"/>
<feColorMatrix type="matrix" values="0 0 0 0 0.447059 0 0 0 0 0.478431 0 0 0 0 1 0 0 0 0.3 0"/>
<feBlend mode="normal" in2="BackgroundImageFix" result="effect1_dropShadow_2597_56065"/>
<feBlend mode="normal" in="SourceGraphic" in2="effect1_dropShadow_2597_56065" result="shape"/>
</filter>
<linearGradient id="paint0_linear_2597_56065" x1="9.58203" y1="14.4773" x2="29.333" y2="14.4773" gradientUnits="userSpaceOnUse">
<stop stop-color="#7B61FF"/>
<stop offset="1" stop-color="#61A0FF"/>
</linearGradient>
</defs>
</svg>
