<svg width="34" height="37" viewBox="0 0 34 37" fill="none" xmlns="http://www.w3.org/2000/svg">
<g id="&#230;&#182;&#136;&#228;&#191;&#157;&#229;&#174;&#161;&#230;&#159;&#165;/&#229;&#155;&#190;&#230;&#160;&#135;">
<g id="Union" filter="url(#filter0_d_2844_34471)">
<path fill-rule="evenodd" clip-rule="evenodd" d="M17.1079 3.76613L15.2581 3.51846C14.9811 3.48131 14.6987 3.50038 14.4303 3.5744C14.1618 3.64841 13.9134 3.77564 13.702 3.94745C13.4906 4.11927 13.321 4.33166 13.2048 4.57025C13.0885 4.80884 13.0284 5.06805 13.0284 5.33032V6.44949C13.0284 6.7939 13.0664 6.91929 13.1382 7.04544C13.2086 7.17008 13.3174 7.27201 13.4504 7.33801C13.585 7.40534 13.7188 7.44172 14.0862 7.44172H24.5832C24.9507 7.44172 25.0844 7.40534 25.2191 7.33801C25.352 7.27201 25.4608 7.17008 25.5312 7.04544C25.6031 6.91929 25.6419 6.7939 25.6419 6.44949V5.33032C25.6419 5.06805 25.5817 4.80884 25.4655 4.57025C25.3493 4.33166 25.1797 4.11927 24.9682 3.94745C24.7568 3.77564 24.5084 3.64841 24.24 3.5744C23.9715 3.50038 23.6892 3.48131 23.4122 3.51846L21.5623 3.76613C20.4822 3.91086 20.1733 3.94801 19.8281 3.97278C19.4821 3.99677 19.1881 3.99677 18.8421 3.97278C18.4969 3.94801 18.1881 3.91009 17.1079 3.76613ZM13.9176 8.16H24.7526C26.1582 8.16 26.6683 8.30585 27.1823 8.58098C27.6963 8.85611 28.0991 9.25896 28.3743 9.77295C28.6486 10.287 28.7952 10.7962 28.7952 12.2018V20.4574C28.7952 21.863 28.6486 22.373 28.3743 22.887C28.1054 23.3949 27.6901 23.8102 27.1823 24.079C26.6683 24.3534 26.1582 24.5 24.7526 24.5H13.9176C12.512 24.5 12.002 24.3534 11.488 24.079C10.9801 23.8102 10.5648 23.3949 10.296 22.887C10.0216 22.373 9.875 21.863 9.875 20.4574V12.2018C9.875 10.7962 10.0216 10.2862 10.296 9.77374C10.5648 9.2659 10.9801 8.8506 11.488 8.58177C12.002 8.30664 12.512 8.16079 13.9176 8.16079V8.16ZM19.487 19.7247C19.3142 19.8912 19.0836 19.9842 18.8437 19.9842C18.6037 19.9842 18.3732 19.8912 18.2004 19.7247L15.3024 16.889C15.2182 16.8072 15.1512 16.7092 15.1055 16.6011C15.0598 16.4929 15.0362 16.3766 15.0362 16.2591C15.0362 16.1417 15.0598 16.0254 15.1055 15.9172C15.1512 15.809 15.2182 15.7111 15.3024 15.6292C15.4752 15.4625 15.706 15.3694 15.9461 15.3694C16.1862 15.3694 16.417 15.4625 16.5898 15.6292L18.8437 17.8342L23.1874 13.5788C23.3603 13.412 23.591 13.3189 23.8311 13.3189C24.0712 13.3189 24.302 13.412 24.4748 13.5788C24.8296 13.9256 24.8296 14.4932 24.4748 14.8393L19.487 19.7247Z" fill="url(#paint0_linear_2844_34471)"/>
</g>
</g>
<defs>
<filter id="filter0_d_2844_34471" x="0.875" y="3.5" width="30.9219" height="33" filterUnits="userSpaceOnUse" color-interpolation-filters="sRGB">
<feFlood flood-opacity="0" result="BackgroundImageFix"/>
<feColorMatrix in="SourceAlpha" type="matrix" values="0 0 0 0 0 0 0 0 0 0 0 0 0 0 0 0 0 0 127 0" result="hardAlpha"/>
<feOffset dx="-3" dy="6"/>
<feGaussianBlur stdDeviation="3"/>
<feComposite in2="hardAlpha" operator="out"/>
<feColorMatrix type="matrix" values="0 0 0 0 0.447059 0 0 0 0 0.478431 0 0 0 0 1 0 0 0 0.3 0"/>
<feBlend mode="normal" in2="BackgroundImageFix" result="effect1_dropShadow_2844_34471"/>
<feBlend mode="normal" in="SourceGraphic" in2="effect1_dropShadow_2844_34471" result="shape"/>
</filter>
<linearGradient id="paint0_linear_2844_34471" x1="9.875" y1="14.4773" x2="30.2143" y2="14.4773" gradientUnits="userSpaceOnUse">
<stop stop-color="#7B61FF"/>
<stop offset="1" stop-color="#61A0FF"/>
</linearGradient>
</defs>
</svg>
