<svg width="32" height="35" viewBox="0 0 32 35" fill="none" xmlns="http://www.w3.org/2000/svg">
<g id="&#230;&#182;&#136;&#228;&#191;&#157;&#229;&#174;&#161;&#230;&#159;&#165;/&#229;&#155;&#190;&#230;&#160;&#135;">
<g id="Union" filter="url(#filter0_d_2597_5688)">
<path fill-rule="evenodd" clip-rule="evenodd" d="M14.1079 3.76613L12.2581 3.51846C11.9811 3.48131 11.6987 3.50038 11.4303 3.5744C11.1618 3.64841 10.9134 3.77564 10.702 3.94745C10.4906 4.11927 10.321 4.33166 10.2048 4.57025C10.0885 4.80884 10.0284 5.06805 10.0284 5.33032V6.44949C10.0284 6.7939 10.0664 6.91929 10.1382 7.04544C10.2086 7.17008 10.3174 7.27201 10.4504 7.33801C10.585 7.40534 10.7188 7.44172 11.0862 7.44172H21.5832C21.9507 7.44172 22.0844 7.40534 22.2191 7.33801C22.352 7.27201 22.4608 7.17008 22.5312 7.04544C22.6031 6.91929 22.6419 6.7939 22.6419 6.44949V5.33032C22.6419 5.06805 22.5817 4.80884 22.4655 4.57025C22.3493 4.33166 22.1797 4.11927 21.9682 3.94745C21.7568 3.77564 21.5084 3.64841 21.24 3.5744C20.9715 3.50038 20.6892 3.48131 20.4122 3.51846L18.5623 3.76613C17.4822 3.91086 17.1733 3.94801 16.8281 3.97278C16.4821 3.99677 16.1881 3.99677 15.8421 3.97278C15.4969 3.94801 15.1881 3.91009 14.1079 3.76613ZM10.9176 8.16H21.7526C23.1582 8.16 23.6683 8.30585 24.1823 8.58098C24.6963 8.85611 25.0991 9.25896 25.3743 9.77295C25.6486 10.287 25.7952 10.7962 25.7952 12.2018V20.4574C25.7952 21.863 25.6486 22.373 25.3743 22.887C25.1054 23.3949 24.6901 23.8102 24.1823 24.079C23.6683 24.3534 23.1582 24.5 21.7526 24.5H10.9176C9.51201 24.5 9.00195 24.3534 8.48795 24.079C7.98011 23.8102 7.56481 23.3949 7.29598 22.887C7.02163 22.373 6.875 21.863 6.875 20.4574V12.2018C6.875 10.7962 7.02163 10.2862 7.29598 9.77374C7.56481 9.2659 7.98011 8.8506 8.48795 8.58177C9.00195 8.30664 9.51201 8.16079 10.9176 8.16079V8.16ZM16.487 19.7247C16.3142 19.8912 16.0836 19.9842 15.8437 19.9842C15.6037 19.9842 15.3732 19.8912 15.2004 19.7247L12.3024 16.889C12.2182 16.8072 12.1512 16.7092 12.1055 16.6011C12.0598 16.4929 12.0362 16.3766 12.0362 16.2591C12.0362 16.1417 12.0598 16.0254 12.1055 15.9172C12.1512 15.809 12.2182 15.7111 12.3024 15.6292C12.4752 15.4625 12.706 15.3694 12.9461 15.3694C13.1862 15.3694 13.417 15.4625 13.5898 15.6292L15.8437 17.8342L20.1874 13.5788C20.3603 13.412 20.591 13.3189 20.8311 13.3189C21.0712 13.3189 21.302 13.412 21.4748 13.5788C21.8296 13.9256 21.8296 14.4932 21.4748 14.8393L16.487 19.7247Z" fill="url(#paint0_linear_2597_5688)"/>
</g>
</g>
<defs>
<filter id="filter0_d_2597_5688" x="0.875" y="1.5" width="30.9219" height="33" filterUnits="userSpaceOnUse" color-interpolation-filters="sRGB">
<feFlood flood-opacity="0" result="BackgroundImageFix"/>
<feColorMatrix in="SourceAlpha" type="matrix" values="0 0 0 0 0 0 0 0 0 0 0 0 0 0 0 0 0 0 127 0" result="hardAlpha"/>
<feOffset dy="4"/>
<feGaussianBlur stdDeviation="3"/>
<feComposite in2="hardAlpha" operator="out"/>
<feColorMatrix type="matrix" values="0 0 0 0 0.180392 0 0 0 0 0.521569 0 0 0 0 0.94902 0 0 0 0.2 0"/>
<feBlend mode="normal" in2="BackgroundImageFix" result="effect1_dropShadow_2597_5688"/>
<feBlend mode="normal" in="SourceGraphic" in2="effect1_dropShadow_2597_5688" result="shape"/>
</filter>
<linearGradient id="paint0_linear_2597_5688" x1="27.5" y1="25" x2="6" y2="5" gradientUnits="userSpaceOnUse">
<stop stop-color="#25E1ED"/>
<stop offset="1" stop-color="#3553F6"/>
</linearGradient>
</defs>
</svg>
