<svg width="35" height="36" viewBox="0 0 35 36" fill="none" xmlns="http://www.w3.org/2000/svg">
<g id="&#230;&#182;&#136;&#228;&#191;&#157;&#229;&#174;&#161;&#230;&#159;&#165;/&#229;&#155;&#190;&#230;&#160;&#135;">
<g id="Union" filter="url(#filter0_d_2597_52839)">
<path fill-rule="evenodd" clip-rule="evenodd" d="M15.4072 12.0432C15.2595 12.1908 15.1766 12.3911 15.1766 12.6C15.1766 12.8089 15.2595 13.0092 15.4072 13.1568C15.5549 13.3045 15.7552 13.3875 15.9641 13.3875H24.3641C24.5729 13.3875 24.7732 13.3045 24.9209 13.1568C25.0686 13.0092 25.1516 12.8089 25.1516 12.6C25.1516 12.3911 25.0686 12.1908 24.9209 12.0432C24.7825 11.9047 24.5978 11.8231 24.4031 11.8135C24.3901 11.8128 24.3771 11.8125 24.3641 11.8125L22.8267 11.8125M23.3141 10.2375H17.0141C16.8052 10.2375 16.6049 10.1545 16.4572 10.0068C16.3095 9.85916 16.2266 9.65886 16.2266 9.45C16.2266 9.24114 16.3095 9.04084 16.4572 8.89316C16.6049 8.74547 16.8052 8.6625 17.0141 8.6625H23.3141C23.5229 8.6625 23.7232 8.74547 23.8709 8.89316C24.0186 9.04084 24.1016 9.24114 24.1016 9.45C24.1016 9.65886 24.0186 9.85916 23.8709 10.0068C23.7232 10.1545 23.5229 10.2375 23.3141 10.2375ZM30.6641 18.9V16.2624C30.6641 15.8088 30.5916 15.3605 30.4488 14.9321L28.4171 8.8389C28.0695 7.7932 27.4012 6.88361 26.5072 6.23935C25.6132 5.59509 24.5389 5.24892 23.4369 5.25H16.8912C15.7893 5.24908 14.7151 5.59531 13.8211 6.23955C12.9271 6.88379 12.2588 7.79329 11.9111 8.8389L9.87931 14.9321C9.73651 15.3605 9.66406 15.8088 9.66406 16.2624V18.9C9.66545 20.1527 10.1637 21.3537 11.0495 22.2395C11.278 22.468 11.5275 22.6708 11.7934 22.8458L11.7923 22.8469C12.5624 23.3557 13.4653 23.6263 14.3883 23.625C14.3885 23.625 14.3888 23.625 14.3891 23.625L18.4388 23.625L25.9391 23.625C28.5441 23.625 30.6641 21.5061 30.6641 18.9ZM26.8388 15.225L28.332 15.225L27.0107 11.2612L26.4251 9.5046C26.3235 9.19939 26.1759 8.91151 25.9872 8.65095L25.9875 8.65068C25.7919 8.38053 25.5533 8.14157 25.2795 7.9441C24.743 7.55731 24.0983 7.34943 23.4369 7.35H16.8912C16.2299 7.34943 15.5851 7.55731 15.0487 7.9441C14.5122 8.3309 14.1113 8.87693 13.9029 9.5046L11.9961 15.225H17.0141C17.1533 15.225 17.2868 15.2803 17.3853 15.3788C17.4837 15.4772 17.5391 15.6108 17.5391 15.75C17.5391 16.6346 17.9782 17.4175 18.6495 17.8932C18.6833 17.917 18.7177 17.9401 18.7527 17.9625C19.1743 18.2314 19.6639 18.3745 20.1639 18.375C21.6108 18.375 22.7889 17.199 22.7889 15.75C22.7889 15.6108 22.8442 15.4772 22.9427 15.3788C23.0412 15.2803 23.1747 15.225 23.3139 15.225H26.8388Z" fill="url(#paint0_linear_2597_52839)"/>
</g>
</g>
<defs>
<filter id="filter0_d_2597_52839" x="0.664062" y="5.25" width="33" height="30.375" filterUnits="userSpaceOnUse" color-interpolation-filters="sRGB">
<feFlood flood-opacity="0" result="BackgroundImageFix"/>
<feColorMatrix in="SourceAlpha" type="matrix" values="0 0 0 0 0 0 0 0 0 0 0 0 0 0 0 0 0 0 127 0" result="hardAlpha"/>
<feOffset dx="-3" dy="6"/>
<feGaussianBlur stdDeviation="3"/>
<feComposite in2="hardAlpha" operator="out"/>
<feColorMatrix type="matrix" values="0 0 0 0 0.447059 0 0 0 0 0.478431 0 0 0 0 1 0 0 0 0.3 0"/>
<feBlend mode="normal" in2="BackgroundImageFix" result="effect1_dropShadow_2597_52839"/>
<feBlend mode="normal" in="SourceGraphic" in2="effect1_dropShadow_2597_52839" result="shape"/>
</filter>
<linearGradient id="paint0_linear_2597_52839" x1="9.66406" y1="14.8551" x2="32.2391" y2="14.8551" gradientUnits="userSpaceOnUse">
<stop stop-color="#7B61FF"/>
<stop offset="1" stop-color="#61A0FF"/>
</linearGradient>
</defs>
</svg>
