<svg width="22" height="22" viewBox="0 0 22 22" fill="none" xmlns="http://www.w3.org/2000/svg">
<path d="M13.5307 17.2979C13.5307 18.6276 12.4969 19.195 11.2058 19.2482L11.1007 19.25C9.80053 19.25 8.73536 18.7235 8.67353 17.4179L8.6708 17.2979H13.5307ZM11.1712 2.75C12.2518 2.75 13.1838 3.40056 13.4916 4.31162L13.5221 4.40982L13.5462 4.50256L13.5552 4.50665C15.5724 5.34952 16.9558 7.19301 17.0758 9.23471L17.0826 9.3811L17.0845 9.5243V12.553L18.076 14.2396C18.2692 14.597 18.2606 15.047 18.0783 15.4216L18.0328 15.5067L17.9819 15.5885C17.73 15.9613 17.2986 16.1954 16.8235 16.225L16.7208 16.2281H5.62166C5.10657 16.2281 4.63059 15.9881 4.36054 15.5885C4.23662 15.4094 4.15872 15.2026 4.13375 14.9863C4.10877 14.77 4.13748 14.5509 4.21734 14.3483L4.25598 14.261L5.25751 12.5525L5.25796 9.52476C5.25796 7.40259 6.59591 5.4709 8.64352 4.56621L8.80491 4.49756L8.80946 4.48165C9.05723 3.54468 9.90646 2.8482 10.9462 2.75955L11.058 2.75227L11.1712 2.75ZM11.1744 4.19387L11.1107 4.19569L11.0707 4.19842C10.6716 4.23252 10.3556 4.46938 10.2361 4.79943L10.2088 4.88763L10.0206 5.55137L9.23771 5.88506C7.74019 6.54654 6.77367 7.91131 6.7182 9.39019L6.71593 9.52476V12.9417L5.63393 14.7843H16.7085L15.6265 12.943V9.54521L15.626 9.44383L15.6206 9.31881C15.5365 7.88903 14.5713 6.55654 13.1097 5.89006L12.3096 5.54319L12.1168 4.7967L12.1091 4.76942C12.0077 4.46938 11.6713 4.22615 11.2553 4.19706L11.1744 4.19387Z" fill="url(#paint0_linear_691_49329)"/>
<defs>
<linearGradient id="paint0_linear_691_49329" x1="4.125" y1="11" x2="18.218" y2="11" gradientUnits="userSpaceOnUse">
<stop stop-color="#FF5C00"/>
<stop offset="1" stop-color="#FFAE64"/>
</linearGradient>
</defs>
</svg>
