<svg width="34" height="37" viewBox="0 0 34 37" fill="none" xmlns="http://www.w3.org/2000/svg">
<g id="&#230;&#182;&#136;&#228;&#191;&#157;&#229;&#174;&#161;&#230;&#159;&#165;/&#229;&#155;&#190;&#230;&#160;&#135;">
<g id="Vector" filter="url(#filter0_d_2597_1049)">
<path d="M20 3.5C14.183 3.5 9.5 8.183 9.5 14C9.5 19.817 14.183 24.5 20 24.5C25.817 24.5 30.5 19.817 30.5 14C30.5 8.183 25.817 3.5 20 3.5ZM23.465 14.5145L20.3045 17.6855C20.147 17.843 19.8845 17.843 19.7165 17.6855L16.535 14.5145C15.6425 13.622 15.4745 12.1835 16.241 11.1755C17.165 9.968 18.9395 9.8735 19.9895 10.9235C21.029 9.884 22.8035 9.9575 23.738 11.1755C24.5255 12.1835 24.3575 13.622 23.465 14.5145Z" fill="url(#paint0_linear_2597_1049)"/>
</g>
</g>
<defs>
<filter id="filter0_d_2597_1049" x="0.5" y="3.5" width="33" height="33" filterUnits="userSpaceOnUse" color-interpolation-filters="sRGB">
<feFlood flood-opacity="0" result="BackgroundImageFix"/>
<feColorMatrix in="SourceAlpha" type="matrix" values="0 0 0 0 0 0 0 0 0 0 0 0 0 0 0 0 0 0 127 0" result="hardAlpha"/>
<feOffset dx="-3" dy="6"/>
<feGaussianBlur stdDeviation="3"/>
<feComposite in2="hardAlpha" operator="out"/>
<feColorMatrix type="matrix" values="0 0 0 0 0.976471 0 0 0 0 0.454902 0 0 0 0 0.533333 0 0 0 0.3 0"/>
<feBlend mode="normal" in2="BackgroundImageFix" result="effect1_dropShadow_2597_1049"/>
<feBlend mode="normal" in="SourceGraphic" in2="effect1_dropShadow_2597_1049" result="shape"/>
</filter>
<linearGradient id="paint0_linear_2597_1049" x1="9.5" y1="14" x2="30.5" y2="14" gradientUnits="userSpaceOnUse">
<stop stop-color="#E85167"/>
<stop offset="1" stop-color="#FF8193"/>
</linearGradient>
</defs>
</svg>
