<svg width="16" height="16" viewBox="0 0 16 16" fill="none" xmlns="http://www.w3.org/2000/svg">
<g id="&#229;&#174;&#161;&#230;&#137;&#185;&#233;&#161;&#181;&#233;&#157;&#162;&#229;&#155;&#190;&#230;&#160;&#135;" clip-path="url(#clip0_746_18967)">
<path id="Subtract" d="M0.976562 0H15.0253V14.439C15.0253 14.7105 14.9544 14.9773 14.8197 15.2131C14.685 15.4488 14.4912 15.6454 14.2573 15.7833C14.0234 15.9212 13.7576 15.9957 13.4861 15.9995C13.2147 16.0033 12.9469 15.9362 12.7092 15.8049L8.00095 13.202L3.29266 15.8049C3.05503 15.9362 2.78725 16.0033 2.51577 15.9995C2.24428 15.9957 1.97848 15.9212 1.74461 15.7833C1.51073 15.6454 1.31688 15.4488 1.18219 15.2131C1.04749 14.9773 0.976618 14.7105 0.976562 14.439V0Z" fill="#EB5D78"/>
<g id="Group 33922">
<path id="Vector" d="M8.20843 10.4883L10.8402 6.55182C10.9527 6.39436 10.9077 6.19192 10.7503 6.07945C10.7053 6.03446 10.6378 6.01196 10.5703 6.01196H8.50085V3.53761C8.50085 3.35765 8.3434 3.2002 8.16344 3.2002C8.05097 3.2002 7.9385 3.26768 7.89351 3.35765L5.2617 7.29413C5.14922 7.45159 5.19421 7.65404 5.35167 7.76651C5.39666 7.8115 5.46414 7.83399 5.53163 7.83399H7.60109V10.3083C7.60109 10.4883 7.75855 10.6458 7.9385 10.6458C8.05097 10.6458 8.16344 10.5783 8.20843 10.4883Z" fill="white"/>
</g>
</g>
<defs>
<clipPath id="clip0_746_18967">
<rect width="16" height="16" fill="white"/>
</clipPath>
</defs>
</svg>
