<svg width="34" height="37" viewBox="0 0 34 37" fill="none" xmlns="http://www.w3.org/2000/svg">
<g id="&#230;&#182;&#136;&#228;&#191;&#157;&#229;&#174;&#161;&#230;&#159;&#165;/&#229;&#155;&#190;&#230;&#160;&#135;">
<g id="Vector" filter="url(#filter0_d_2597_54346)">
<path d="M19.832 3.5C17.7553 3.5 15.7253 4.11581 13.9985 5.26957C12.2718 6.42332 10.926 8.0632 10.1313 9.98182C9.33658 11.9004 9.12865 14.0116 9.53379 16.0484C9.93894 18.0852 10.939 19.9562 12.4074 21.4246C13.8759 22.8931 15.7468 23.8931 17.7836 24.2982C19.8204 24.7034 21.9316 24.4954 23.8502 23.7007C25.7688 22.906 27.4087 21.5602 28.5625 19.8335C29.7162 18.1068 30.332 16.0767 30.332 14C30.332 11.2152 29.2258 8.54451 27.2567 6.57538C25.2875 4.60625 22.6168 3.5 19.832 3.5ZM25.404 11.2245L18.9605 17.99C18.8636 18.0955 18.746 18.18 18.6151 18.2384C18.4843 18.2967 18.3428 18.3277 18.1996 18.3293C18.0563 18.3309 17.9142 18.3032 17.782 18.2479C17.6498 18.1925 17.5304 18.1107 17.431 18.0075L14.183 14.7595C14.0787 14.6552 13.9959 14.5313 13.9395 14.395C13.883 14.2587 13.8539 14.1125 13.8539 13.965C13.8539 13.8174 13.883 13.6713 13.9395 13.535C13.9959 13.3987 14.0787 13.2748 14.183 13.1705C14.2874 13.0662 14.4112 12.9834 14.5476 12.9269C14.6839 12.8705 14.83 12.8414 14.9775 12.8414C15.1251 12.8414 15.2712 12.8705 15.4075 12.9269C15.5438 12.9834 15.6677 13.0662 15.772 13.1705L17.7845 15.183C17.901 15.2999 18.0566 15.3695 18.2214 15.3786C18.3862 15.3876 18.5485 15.3354 18.677 15.232L24.69 10.444C24.7958 10.371 24.9246 10.3392 25.0523 10.3543C25.1799 10.3694 25.2976 10.4306 25.3834 10.5263C25.4693 10.6219 25.5173 10.7456 25.5185 10.8741C25.5197 11.0027 25.474 11.1272 25.39 11.2245H25.404Z" fill="url(#paint0_linear_2597_54346)"/>
</g>
</g>
<defs>
<filter id="filter0_d_2597_54346" x="0.332031" y="3.5" width="33" height="33" filterUnits="userSpaceOnUse" color-interpolation-filters="sRGB">
<feFlood flood-opacity="0" result="BackgroundImageFix"/>
<feColorMatrix in="SourceAlpha" type="matrix" values="0 0 0 0 0 0 0 0 0 0 0 0 0 0 0 0 0 0 127 0" result="hardAlpha"/>
<feOffset dx="-3" dy="6"/>
<feGaussianBlur stdDeviation="3"/>
<feComposite in2="hardAlpha" operator="out"/>
<feColorMatrix type="matrix" values="0 0 0 0 0.25098 0 0 0 0 0.894118 0 0 0 0 0.615686 0 0 0 0.3 0"/>
<feBlend mode="normal" in2="BackgroundImageFix" result="effect1_dropShadow_2597_54346"/>
<feBlend mode="normal" in="SourceGraphic" in2="effect1_dropShadow_2597_54346" result="shape"/>
</filter>
<linearGradient id="paint0_linear_2597_54346" x1="9.33203" y1="14" x2="30.332" y2="14" gradientUnits="userSpaceOnUse">
<stop stop-color="#11CA5B"/>
<stop offset="1" stop-color="#5DF4C6"/>
</linearGradient>
</defs>
</svg>
