<svg width="49" height="48" viewBox="0 0 49 48" fill="none" xmlns="http://www.w3.org/2000/svg">
<circle cx="24.8008" cy="24" r="24" fill="#81E2FF" fill-opacity="0.2"/>
<g filter="url(#filter0_d_4814_72113)">
<path d="M24.7388 15.5546C30.1063 15.5546 34.3961 19.8323 34.3961 25.1794C34.3961 30.5224 30.1022 34.8002 24.7388 34.8002C19.3714 34.8002 15.0815 30.5224 15.0815 25.1794C15.0815 19.8323 19.3714 15.5546 24.7388 15.5546ZM29.5655 28.0664L25.2715 25.5007V19.8323H23.6613V26.2448L28.7035 29.3474L29.5655 28.0664ZM35.4737 17.3681L30.5333 13.2002L29.1386 14.8023L34.0749 18.9743L35.4737 17.3681ZM15.3986 18.9783L14.0039 17.3722L18.9444 13.31L20.3391 14.9121L15.3986 18.9783Z" fill="url(#paint0_linear_4814_72113)"/>
</g>
<defs>
<filter id="filter0_d_4814_72113" x="8.00391" y="11.2002" width="33.4688" height="33.6001" filterUnits="userSpaceOnUse" color-interpolation-filters="sRGB">
<feFlood flood-opacity="0" result="BackgroundImageFix"/>
<feColorMatrix in="SourceAlpha" type="matrix" values="0 0 0 0 0 0 0 0 0 0 0 0 0 0 0 0 0 0 127 0" result="hardAlpha"/>
<feOffset dy="4"/>
<feGaussianBlur stdDeviation="3"/>
<feComposite in2="hardAlpha" operator="out"/>
<feColorMatrix type="matrix" values="0 0 0 0 0.180392 0 0 0 0 0.521569 0 0 0 0 0.94902 0 0 0 0.2 0"/>
<feBlend mode="normal" in2="BackgroundImageFix" result="effect1_dropShadow_4814_72113"/>
<feBlend mode="normal" in="SourceGraphic" in2="effect1_dropShadow_4814_72113" result="shape"/>
</filter>
<linearGradient id="paint0_linear_4814_72113" x1="24.7388" y1="13.2002" x2="24.7388" y2="34.8002" gradientUnits="userSpaceOnUse">
<stop stop-color="#2FE0EB"/>
<stop offset="1" stop-color="#2D4DF6"/>
</linearGradient>
</defs>
</svg>
