<svg width="49" height="48" viewBox="0 0 49 48" fill="none" xmlns="http://www.w3.org/2000/svg">
<path d="M48.6016 24C48.6016 37.2548 37.8564 48 24.6016 48C11.3467 48 0.601562 37.2548 0.601562 24C0.601562 10.7452 11.3467 0 24.6016 0C37.8564 0 48.6016 10.7452 48.6016 24Z" fill="url(#paint0_linear_4814_27029)" fill-opacity="0.1"/>
<g filter="url(#filter0_d_4814_27029)">
<path d="M25.5555 26.6333C25.4566 26.5096 25.3329 26.3612 25.2587 26.188C25.2092 26.089 25.1845 26.0396 25.1597 25.9406C25.1102 25.8169 25.0855 25.6932 25.0855 25.5695C25.0855 25.3963 25.0855 25.1737 25.1102 24.9511C25.135 24.6789 25.2339 24.4068 25.4319 24.1842C25.5555 24.0605 25.704 23.9368 25.8277 23.8378C25.9266 23.7636 26.0256 23.7141 26.0998 23.6152C26.2235 23.5162 26.3224 23.343 26.3967 23.1946C26.4956 23.0214 26.5451 22.8483 26.644 22.6751C26.6935 22.5514 26.743 22.403 26.8172 22.2545C26.8667 22.1803 26.8914 22.1061 26.9162 22.0072C27.0646 21.5619 27.1636 21.1908 27.213 20.8444C27.312 20.4239 27.3367 20.0281 27.3862 19.4838C27.4109 18.4943 27.2873 17.48 26.9904 16.5152C26.9904 16.4904 26.9656 16.441 26.9656 16.4162C26.8667 15.9709 26.6688 15.5504 26.3967 15.1545C26.3719 15.1298 26.3472 15.0803 26.3224 15.0556L26.3472 15.1051C26.3224 15.0556 26.273 15.0061 26.2482 14.9814C26.1988 14.9319 26.174 14.8824 26.1493 14.8329L26.1245 14.8082C25.9019 14.5361 25.6792 14.3382 25.4566 14.165C25.135 13.9176 24.8134 13.7197 24.467 13.596C24.1207 13.4228 23.7744 13.3239 23.428 13.2744C23.0817 13.2249 22.7601 13.2002 22.4385 13.2002H22.2158C21.8942 13.2002 21.5726 13.2249 21.2263 13.2744C20.8799 13.3239 20.5336 13.4228 20.212 13.5465C19.8657 13.6702 19.5441 13.8681 19.2225 14.1155C18.9751 14.2887 18.7772 14.5113 18.5545 14.7587L18.5298 14.7835C18.4803 14.8329 18.4556 14.8824 18.4308 14.9319C18.4061 14.9814 18.3566 15.0309 18.3319 15.0556L18.3071 15.0803C18.2824 15.1051 18.2576 15.1545 18.2329 15.1793C17.9608 15.5751 17.7876 15.9957 17.6639 16.441C17.6639 16.4657 17.6392 16.5152 17.6392 16.5399C17.3671 17.5047 17.2186 18.4943 17.2434 19.5086C17.2681 20.0528 17.3423 20.4734 17.4165 20.8692C17.4907 21.2155 17.565 21.6113 17.7134 22.0319C17.7381 22.1308 17.7876 22.1803 17.8123 22.2793C17.8866 22.4277 17.936 22.5514 17.9855 22.6998C18.0597 22.873 18.134 23.0462 18.2329 23.2193C18.3071 23.3678 18.4061 23.5162 18.5298 23.6399C18.6287 23.7141 18.7277 23.7883 18.8019 23.8626C18.9256 23.9615 19.074 24.1099 19.1977 24.2089C19.3956 24.4315 19.4946 24.6789 19.5193 24.9758C19.5441 25.1984 19.5441 25.3963 19.5441 25.5943C19.5441 25.6932 19.5193 25.8169 19.4946 25.9159V25.9653C19.4698 26.0643 19.4204 26.1138 19.3956 26.2127C19.3461 26.2869 19.3214 26.3117 19.2967 26.3859C19.2719 26.4354 19.2225 26.4848 19.1977 26.5096C19.173 26.5343 19.1235 26.6085 19.0988 26.6085C18.9503 26.757 18.7277 26.9301 18.4556 27.1033C18.2082 27.2517 17.936 27.3754 17.6392 27.4991C17.3423 27.6228 17.0207 27.697 16.6991 27.7713C16.3775 27.8455 16.0806 27.9692 15.759 28.0434C15.4869 28.1423 15.1901 28.266 14.9427 28.4392C14.72 28.5876 14.5221 28.7608 14.3489 28.9835C14.1758 29.2061 14.0768 29.4782 14.0026 29.8246C13.8047 30.8141 13.7552 31.5315 13.8542 32.1005C13.9284 32.6695 14.0521 33.0159 14.2005 33.1148C14.2995 33.189 14.4726 33.2385 14.819 33.3375C15.1406 33.4117 15.5364 33.4611 15.9817 33.5601C16.4765 33.6343 16.996 33.6838 17.5155 33.758C18.0845 33.8322 18.6535 33.857 19.2225 33.9312C19.5441 33.9559 19.8409 33.9807 20.1873 34.0054C20.4346 34.0301 20.6326 34.0301 20.8799 34.0549H21.6221C21.8942 34.0549 22.1416 34.0796 22.4137 34.0796C22.6859 34.0796 22.9332 34.0796 23.2054 34.0549H23.9475C24.1949 34.0301 24.3928 34.0301 24.6402 34.0054C24.9618 33.9807 25.2587 33.9559 25.605 33.9312C25.9266 33.9064 26.2235 33.8817 26.5451 33.8322C25.5061 32.719 24.8629 31.2347 24.8629 29.6019C24.7886 28.5382 25.0855 27.5239 25.5555 26.6333Z" fill="url(#paint1_linear_4814_27029)"/>
</g>
<g filter="url(#filter1_d_4814_27029)">
<path d="M35.0778 27.8949C34.9541 27.6228 34.8304 27.3754 34.6572 27.128C34.3356 26.658 33.9398 26.2374 33.445 25.9158C33.1977 25.7674 32.9503 25.619 32.6782 25.4953C32.1339 25.2726 31.5649 25.1489 30.9464 25.1489C30.0311 25.1489 29.1653 25.4211 28.4478 25.9158C27.9778 26.2374 27.5573 26.6332 27.2356 27.128C27.1367 27.2517 27.0625 27.4001 26.9883 27.5238C26.9388 27.6475 26.8646 27.7465 26.8151 27.8702C26.5924 28.4144 26.4688 28.9834 26.4688 29.6019C26.4688 31.3088 27.4336 32.7932 28.8437 33.5353C29.4621 33.8569 30.1795 34.0548 30.9217 34.0548C31.5402 34.0548 32.1339 33.9311 32.6534 33.7085C32.9255 33.5848 33.1729 33.4611 33.4203 33.2879C33.8903 32.9663 34.3109 32.5705 34.6325 32.0757C35.1025 31.3583 35.3994 30.5172 35.3994 29.5771C35.4241 29.0082 35.3004 28.4144 35.0778 27.8949ZM34.1872 28.0928L30.0559 32.2242L27.7552 29.9235C27.5078 29.6761 27.5078 29.305 27.7552 29.0576C28.0025 28.8102 28.3736 28.8102 28.621 29.0576L30.0311 30.4925L33.3214 27.227C33.5687 26.9796 33.9398 26.9796 34.1872 27.227C34.4346 27.4744 34.4346 27.8454 34.1872 28.0928Z" fill="url(#paint2_linear_4814_27029)"/>
</g>
<defs>
<filter id="filter0_d_4814_27029" x="7.80469" y="11.2002" width="25.5859" height="32.8794" filterUnits="userSpaceOnUse" color-interpolation-filters="sRGB">
<feFlood flood-opacity="0" result="BackgroundImageFix"/>
<feColorMatrix in="SourceAlpha" type="matrix" values="0 0 0 0 0 0 0 0 0 0 0 0 0 0 0 0 0 0 127 0" result="hardAlpha"/>
<feOffset dy="4"/>
<feGaussianBlur stdDeviation="3"/>
<feComposite in2="hardAlpha" operator="out"/>
<feColorMatrix type="matrix" values="0 0 0 0 0.407843 0 0 0 0 0.556863 0 0 0 0 1 0 0 0 0.2 0"/>
<feBlend mode="normal" in2="BackgroundImageFix" result="effect1_dropShadow_4814_27029"/>
<feBlend mode="normal" in="SourceGraphic" in2="effect1_dropShadow_4814_27029" result="shape"/>
</filter>
<filter id="filter1_d_4814_27029" x="20.4688" y="23.1489" width="20.9336" height="20.906" filterUnits="userSpaceOnUse" color-interpolation-filters="sRGB">
<feFlood flood-opacity="0" result="BackgroundImageFix"/>
<feColorMatrix in="SourceAlpha" type="matrix" values="0 0 0 0 0 0 0 0 0 0 0 0 0 0 0 0 0 0 127 0" result="hardAlpha"/>
<feOffset dy="4"/>
<feGaussianBlur stdDeviation="3"/>
<feComposite in2="hardAlpha" operator="out"/>
<feColorMatrix type="matrix" values="0 0 0 0 0.407843 0 0 0 0 0.556863 0 0 0 0 1 0 0 0 0.2 0"/>
<feBlend mode="normal" in2="BackgroundImageFix" result="effect1_dropShadow_4814_27029"/>
<feBlend mode="normal" in="SourceGraphic" in2="effect1_dropShadow_4814_27029" result="shape"/>
</filter>
<linearGradient id="paint0_linear_4814_27029" x1="0.601562" y1="25.0909" x2="52.2016" y2="25.0909" gradientUnits="userSpaceOnUse">
<stop stop-color="#7B61FF"/>
<stop offset="1" stop-color="#61A0FF"/>
</linearGradient>
<linearGradient id="paint1_linear_4814_27029" x1="13.8047" y1="24.1144" x2="28.4081" y2="24.1144" gradientUnits="userSpaceOnUse">
<stop stop-color="#7B61FF"/>
<stop offset="1" stop-color="#61A0FF"/>
</linearGradient>
<linearGradient id="paint2_linear_4814_27029" x1="26.4687" y1="29.8043" x2="36.0726" y2="29.8043" gradientUnits="userSpaceOnUse">
<stop stop-color="#7B61FF"/>
<stop offset="1" stop-color="#61A0FF"/>
</linearGradient>
</defs>
</svg>
