<svg width="49" height="48" viewBox="0 0 49 48" fill="none" xmlns="http://www.w3.org/2000/svg">
<path d="M48.1992 24C48.1992 37.2548 37.4541 48 24.1992 48C10.9444 48 0.199219 37.2548 0.199219 24C0.199219 10.7452 10.9444 0 24.1992 0C37.4541 0 48.1992 10.7452 48.1992 24Z" fill="#E6FFFB"/>
<g filter="url(#filter0_d_4814_46276)">
<path d="M29.4493 13.2993L15.9746 13.2002C15.1438 13.1954 14.4651 13.8669 14.4579 14.7001L14.3008 31.0175C14.2937 31.8509 14.9603 32.5343 15.7911 32.5392L24.8362 32.6044C24.8387 32.6044 24.9184 32.5464 25.0512 32.4498C24.6817 31.7059 24.4764 30.8654 24.486 29.9742C24.515 26.9671 26.964 24.5447 29.9566 24.5664C30.2633 24.5689 30.5627 24.5978 30.855 24.6485C30.8357 22.9578 30.8284 21.2841 30.8768 21.2889L30.9395 14.8185C30.9468 13.9877 30.2802 13.3041 29.4493 13.2993ZM18.0808 17.1492L21.9162 17.1757C22.3315 17.1782 22.6649 17.5187 22.6601 17.9365C22.6553 18.352 22.3171 18.6901 21.9017 18.6852L18.0663 18.6587C17.6508 18.6564 17.3175 18.3158 17.3224 17.8979C17.3272 17.4825 17.6702 17.1468 18.0808 17.1492ZM24.1551 27.6289L17.9817 27.5855C17.5663 27.5831 17.2355 27.2425 17.2378 26.8247C17.2426 26.4069 17.5808 26.0711 17.9962 26.0759L24.1623 26.1194C24.5778 26.1218 24.9087 26.4623 24.9062 26.8802C24.9087 27.2956 24.5681 27.6338 24.1551 27.6289ZM25.3217 23.1728L18.0252 23.1197C17.6098 23.1173 17.2765 22.7766 17.2813 22.3588C17.2837 21.9435 17.6291 21.6077 18.0398 21.6102L25.3362 21.6632C25.7492 21.6657 26.0825 22.0062 26.08 22.4241C26.0776 22.8419 25.7395 23.1776 25.3217 23.1728Z" fill="url(#paint0_linear_4814_46276)"/>
</g>
<g filter="url(#filter1_d_4814_46276)">
<path d="M29.9453 25.2141C27.2983 25.2141 25.1523 27.36 25.1523 30.0071C25.1523 32.6543 27.2983 34.8002 29.9453 34.8002C32.5925 34.8002 34.7384 32.6543 34.7384 30.0071C34.7384 27.36 32.5925 25.2141 29.9453 25.2141ZM32.6945 28.7639L29.5947 31.8638L29.5946 31.8639C29.4516 32.0068 29.2337 32.0292 29.0674 31.9309C29.0359 31.9123 29.0069 31.8898 28.9811 31.8639L28.981 31.8639L27.1962 30.0791C27.0268 29.9097 27.0268 29.635 27.1962 29.4655C27.3656 29.2961 27.6403 29.2961 27.8098 29.4655L29.2879 30.9436L32.081 28.1504C32.2505 27.981 32.5252 27.981 32.6946 28.1504C32.8639 28.3198 32.8639 28.5945 32.6945 28.7639Z" fill="url(#paint1_linear_4814_46276)"/>
</g>
<defs>
<filter id="filter0_d_4814_46276" x="8.30078" y="11.2002" width="28.6406" height="31.4043" filterUnits="userSpaceOnUse" color-interpolation-filters="sRGB">
<feFlood flood-opacity="0" result="BackgroundImageFix"/>
<feColorMatrix in="SourceAlpha" type="matrix" values="0 0 0 0 0 0 0 0 0 0 0 0 0 0 0 0 0 0 127 0" result="hardAlpha"/>
<feOffset dy="4"/>
<feGaussianBlur stdDeviation="3"/>
<feComposite in2="hardAlpha" operator="out"/>
<feColorMatrix type="matrix" values="0 0 0 0 0.12549 0 0 0 0 0.698039 0 0 0 0 0.584314 0 0 0 0.2 0"/>
<feBlend mode="normal" in2="BackgroundImageFix" result="effect1_dropShadow_4814_46276"/>
<feBlend mode="normal" in="SourceGraphic" in2="effect1_dropShadow_4814_46276" result="shape"/>
</filter>
<filter id="filter1_d_4814_46276" x="19.1523" y="23.2141" width="21.5859" height="21.5859" filterUnits="userSpaceOnUse" color-interpolation-filters="sRGB">
<feFlood flood-opacity="0" result="BackgroundImageFix"/>
<feColorMatrix in="SourceAlpha" type="matrix" values="0 0 0 0 0 0 0 0 0 0 0 0 0 0 0 0 0 0 127 0" result="hardAlpha"/>
<feOffset dy="4"/>
<feGaussianBlur stdDeviation="3"/>
<feComposite in2="hardAlpha" operator="out"/>
<feColorMatrix type="matrix" values="0 0 0 0 0.12549 0 0 0 0 0.698039 0 0 0 0 0.584314 0 0 0 0.2 0"/>
<feBlend mode="normal" in2="BackgroundImageFix" result="effect1_dropShadow_4814_46276"/>
<feBlend mode="normal" in="SourceGraphic" in2="effect1_dropShadow_4814_46276" result="shape"/>
</filter>
<linearGradient id="paint0_linear_4814_46276" x1="14.3008" y1="22.9023" x2="30.9396" y2="22.9023" gradientUnits="userSpaceOnUse">
<stop stop-color="#19E0ED"/>
<stop offset="1" stop-color="#3FBCE3"/>
</linearGradient>
<linearGradient id="paint1_linear_4814_46276" x1="25.1523" y1="30.0071" x2="34.7384" y2="30.0071" gradientUnits="userSpaceOnUse">
<stop stop-color="#19E0ED"/>
<stop offset="1" stop-color="#3FBCE3"/>
</linearGradient>
</defs>
</svg>
