<svg width="49" height="48" viewBox="0 0 49 48" fill="none" xmlns="http://www.w3.org/2000/svg">
<circle cx="24.3984" cy="24" r="24" fill="#FFF7E6"/>
<g filter="url(#filter0_d_4814_72043)">
<path d="M33.3912 19.8239L31.7683 18.8858V15.1107C31.7683 14.5525 31.3613 14.1001 30.8595 14.1001H18.0057C17.5038 14.1001 17.0969 14.5525 17.0969 15.1107V18.848L15.4089 19.8239C15.4089 19.8239 14.5 20.3075 14.5 20.9295C14.5 21.5516 14.5 21.71 14.5 21.71V32.1817C14.5 32.9001 15.0814 33.4826 15.7984 33.4826H33.0016C33.7186 33.4826 34.3 32.9001 34.3 32.1817V21.71C34.3 21.71 34.3 21.5516 34.3 20.9295C34.3 20.3075 33.3912 19.8239 33.3912 19.8239ZM17.0969 21.6274L15.7985 20.8645L17.0319 20.1491L17.0968 20.123V21.6274H17.0969ZM23.3548 17.2332C23.3548 17.0191 23.5283 16.8456 23.7424 16.8456H29.1743C29.3884 16.8456 29.562 17.0191 29.562 17.2332V17.3216C29.562 17.5356 29.3885 17.7092 29.1743 17.7092H23.7425C23.5285 17.7092 23.355 17.5356 23.355 17.3216V17.2332H23.3548ZM19.0524 17.1437C19.0524 16.979 19.1859 16.8454 19.3507 16.8454H22.0118C22.1765 16.8454 22.3101 16.9789 22.3101 17.1437V19.8167C22.3101 19.9813 22.1766 20.1149 22.0118 20.1149H19.3507C19.1861 20.1149 19.0524 19.9815 19.0524 19.8167V17.1437ZM29.6235 21.3927C29.6235 21.6068 29.4499 21.7803 29.2357 21.7803H19.44C19.226 21.7803 19.0524 21.6068 19.0524 21.3927V21.3045C19.0524 21.0904 19.226 20.9169 19.44 20.9169H29.2357C29.4498 20.9169 29.6235 21.0904 29.6235 21.3045V21.3927ZM29.6235 19.2955C29.6235 19.5096 29.4499 19.6831 29.2357 19.6831H23.804C23.5899 19.6831 23.4164 19.5096 23.4164 19.2955V19.2071C23.4164 18.993 23.5899 18.8195 23.804 18.8195H29.2359C29.4499 18.8195 29.6236 18.993 29.6236 19.2071V19.2955H29.6235ZM31.7684 21.6595V20.1489L33.0018 20.8644L33.063 20.9043L31.7684 21.6595Z" fill="url(#paint0_linear_4814_72043)"/>
</g>
<defs>
<filter id="filter0_d_4814_72043" x="8.5" y="12.1001" width="31.8008" height="31.3826" filterUnits="userSpaceOnUse" color-interpolation-filters="sRGB">
<feFlood flood-opacity="0" result="BackgroundImageFix"/>
<feColorMatrix in="SourceAlpha" type="matrix" values="0 0 0 0 0 0 0 0 0 0 0 0 0 0 0 0 0 0 127 0" result="hardAlpha"/>
<feOffset dy="4"/>
<feGaussianBlur stdDeviation="3"/>
<feComposite in2="hardAlpha" operator="out"/>
<feColorMatrix type="matrix" values="0 0 0 0 1 0 0 0 0 0.694118 0 0 0 0 0.137255 0 0 0 0.2 0"/>
<feBlend mode="normal" in2="BackgroundImageFix" result="effect1_dropShadow_4814_72043"/>
<feBlend mode="normal" in="SourceGraphic" in2="effect1_dropShadow_4814_72043" result="shape"/>
</filter>
<linearGradient id="paint0_linear_4814_72043" x1="14.5" y1="23.7913" x2="34.3" y2="23.7913" gradientUnits="userSpaceOnUse">
<stop stop-color="#FF9900"/>
<stop offset="1" stop-color="#FFDD64"/>
</linearGradient>
</defs>
</svg>
